<?xml version="1.0" standalone="no"?>
<!DOCTYPE svg PUBLIC "-//W3C//DTD SVG 20010904//EN"
 "http://www.w3.org/TR/2001/REC-SVG-20010904/DTD/svg10.dtd">
<svg version="1.0" xmlns="http://www.w3.org/2000/svg"
 width="2768.000000pt" height="2768.000000pt" viewBox="0 0 2768.000000 2768.000000"
 preserveAspectRatio="xMidYMid meet">

<g transform="translate(0.000000,2768.000000) scale(0.100000,-0.100000)"
fill="#000000" stroke="none">
<path d="M8082 19597 l-8083 -8083 3 -162 3 -162 8245 8245 8245 8245 -165 0
-165 0 -8083 -8083z"/>
<path d="M8417 19262 l-8417 -8417 2 -498 3 -497 8915 8915 8915 8915 -500 0
-500 0 -8418 -8418z"/>
<path d="M9082 18597 l-9083 -9083 3 -167 3 -167 9250 9250 9250 9250 -170 0
-170 0 -9083 -9083z"/>
<path d="M19026 27653 c-3 -16 -9 -82 -12 -148 -11 -198 20 -276 196 -510 128
-169 162 -236 168 -331 l5 -73 -64 -63 c-85 -84 -132 -145 -119 -153 14 -9 69
33 154 118 l70 70 65 -7 c89 -8 176 -52 326 -166 230 -175 301 -205 485 -204
82 1 152 9 245 28 121 24 240 59 257 75 9 8 -227 166 -357 240 -203 115 -343
159 -530 168 -142 6 -271 -12 -394 -55 -44 -16 -81 -28 -81 -26 0 2 8 25 19
51 76 196 85 479 20 677 -16 50 -57 145 -92 211 l-62 120 -146 3 -147 3 -6
-28z"/>
<path d="M20160 27676 c0 -2 12 -29 26 -61 16 -34 29 -83 32 -121 l5 -63 -60
-58 c-79 -78 -136 -150 -128 -163 8 -14 71 35 153 118 l63 65 72 -5 c97 -6
158 -37 328 -164 239 -180 314 -210 509 -202 171 7 492 80 475 108 -18 30
-304 209 -446 281 -191 95 -293 120 -495 120 -129 0 -226 -16 -344 -56 -41
-14 -75 -25 -76 -25 -2 0 4 17 13 38 18 43 53 161 53 179 0 10 -25 13 -90 13
-49 0 -90 -2 -90 -4z"/>
<path d="M22546 27545 c-18 -95 -26 -169 -26 -244 0 -176 32 -254 191 -463
129 -170 170 -250 177 -341 l5 -69 -70 -71 c-90 -93 -125 -136 -117 -148 9
-15 38 6 134 97 l90 86 63 -4 c91 -6 171 -47 336 -171 223 -167 295 -197 475
-197 123 0 355 41 459 81 67 26 79 13 -128 148 -163 107 -388 222 -495 252
-117 33 -343 38 -478 10 -56 -12 -125 -31 -154 -42 -28 -11 -52 -18 -55 -16
-2 3 5 27 16 55 11 29 30 98 42 154 28 135 23 361 -10 478 -26 93 -140 324
-220 448 l-60 92 -74 0 -75 0 -26 -135z"/>
<path d="M23595 27609 c69 -93 101 -152 120 -224 26 -102 25 -104 -80 -217
-52 -56 -95 -108 -95 -115 0 -28 30 -9 128 82 116 108 122 110 234 75 71 -22
151 -70 273 -165 118 -92 198 -141 273 -167 129 -44 391 -24 620 48 45 15 82
29 82 33 0 11 -267 185 -382 248 -219 122 -341 156 -558 156 -154 0 -231 -12
-359 -57 l-69 -24 24 69 c28 79 49 175 58 267 l7 62 -165 0 -165 0 54 -71z"/>
<path d="M13092 14587 l-13093 -13093 3 -162 3 -162 13255 13255 13255 13255
-165 0 -165 0 -13093 -13093z"/>
<path d="M643 27513 c-12 -49 -21 -88 -20 -89 1 -1 14 -4 28 -7 26 -7 27 -5
48 80 18 69 19 88 9 94 -34 22 -44 9 -65 -78z"/>
<path d="M2313 27513 c-12 -49 -21 -88 -20 -89 1 -1 14 -4 28 -7 26 -7 27 -5
48 79 12 47 19 89 16 95 -4 5 -16 9 -29 9 -19 0 -24 -10 -43 -87z"/>
<path d="M3985 27523 c-10 -43 -20 -83 -22 -89 -4 -10 47 -27 55 -19 9 9 42
159 38 171 -3 8 -16 14 -29 14 -21 0 -25 -8 -42 -77z"/>
<path d="M5655 27523 c-10 -43 -20 -83 -22 -89 -4 -10 47 -27 55 -19 9 9 42
159 38 171 -3 8 -16 14 -29 14 -21 0 -25 -8 -42 -77z"/>
<path d="M7323 27514 l-21 -85 26 -10 c13 -5 27 -8 29 -5 10 10 44 160 39 172
-3 8 -16 14 -29 14 -21 0 -25 -9 -44 -86z"/>
<path d="M9015 27588 c-10 -30 -35 -137 -35 -151 0 -13 39 -32 48 -22 9 9 43
159 38 171 -7 17 -45 18 -51 2z"/>
<path d="M10685 27588 c-10 -30 -35 -137 -35 -151 0 -13 39 -32 48 -22 9 9 43
159 38 171 -7 17 -45 18 -51 2z"/>
<path d="M12355 27588 c-10 -30 -35 -137 -35 -151 0 -13 39 -32 48 -22 9 9 43
159 38 171 -7 17 -45 18 -51 2z"/>
<path d="M14025 27588 c-10 -30 -35 -137 -35 -151 0 -13 39 -32 48 -22 9 9 43
159 38 171 -7 17 -45 18 -51 2z"/>
<path d="M715 27309 c-16 -3 -37 -10 -46 -13 -10 -4 -20 -3 -24 3 -3 6 -17 11
-30 11 -17 0 -25 -7 -29 -27 -4 -16 -13 -51 -21 -79 l-15 -52 -72 -17 c-40
-10 -76 -20 -80 -24 -4 -3 -5 -17 -1 -30 5 -20 10 -22 42 -17 20 3 45 8 56 11
19 6 20 1 20 -112 0 -104 4 -125 26 -180 31 -73 61 -112 114 -148 36 -24 46
-26 100 -20 79 7 86 7 116 0 24 -6 26 -4 38 51 20 88 30 103 73 114 21 6 56
15 78 20 45 12 43 10 30 44 -9 25 -9 25 -57 11 -26 -8 -50 -15 -53 -15 -3 0
-5 53 -5 117 -1 98 -5 127 -23 175 -51 126 -147 198 -237 177z"/>
<path d="M4055 27309 c-16 -3 -37 -10 -46 -13 -10 -4 -20 -3 -24 3 -3 6 -17
11 -30 11 -20 0 -25 -8 -39 -68 -10 -37 -21 -74 -25 -81 -5 -7 -42 -21 -82
-31 -41 -9 -74 -22 -73 -28 1 -7 2 -19 3 -28 1 -16 33 -16 96 2 19 5 20 0 20
-113 1 -141 21 -204 90 -281 55 -62 88 -76 157 -68 74 8 80 8 109 1 26 -7 27
-5 43 62 9 38 21 74 25 81 4 7 41 22 80 32 40 10 75 20 77 23 3 2 0 16 -5 30
-10 25 -10 25 -57 11 -26 -8 -50 -14 -53 -14 -3 0 -6 51 -6 112 0 126 -15 184
-66 262 -48 71 -127 111 -194 95z"/>
<path d="M7395 27309 c-16 -3 -37 -10 -46 -13 -10 -4 -20 -3 -24 3 -3 6 -17
11 -30 11 -20 0 -25 -8 -39 -68 -10 -37 -21 -74 -25 -81 -5 -7 -40 -21 -78
-30 -38 -9 -70 -19 -71 -23 -1 -5 -2 -18 -2 -29 0 -19 4 -21 38 -15 20 3 47 9
58 12 21 6 22 4 17 -78 -9 -146 32 -265 116 -341 48 -43 74 -51 138 -43 66 8
74 8 104 1 26 -7 27 -5 43 62 9 38 21 74 25 81 4 7 41 22 80 32 40 10 74 20
77 22 2 2 0 14 -3 27 -5 20 -10 22 -42 17 -20 -3 -46 -9 -57 -12 -21 -6 -21
-4 -17 83 13 229 -115 416 -262 382z"/>
<path d="M10735 27309 c-16 -3 -37 -10 -46 -13 -10 -4 -20 -3 -24 3 -3 6 -16
11 -29 11 -20 0 -25 -8 -36 -57 -19 -87 -29 -102 -72 -113 -124 -32 -116 -28
-110 -56 4 -24 8 -26 41 -20 20 3 46 9 58 12 23 6 23 6 17 -69 -12 -140 30
-271 110 -345 48 -44 93 -58 153 -48 50 8 63 9 94 1 26 -7 27 -5 43 62 9 38
21 74 25 81 4 7 41 22 80 32 40 10 75 21 77 23 3 3 2 16 -1 30 -7 25 -7 25
-58 11 -29 -8 -55 -14 -58 -14 -3 0 -3 39 -1 86 7 128 -19 224 -85 312 -40 53
-119 85 -178 71z"/>
<path d="M14075 27309 c-16 -3 -37 -10 -46 -13 -10 -4 -20 -3 -24 3 -3 6 -16
11 -29 11 -20 0 -25 -8 -36 -57 -19 -87 -29 -102 -72 -113 -124 -32 -116 -28
-110 -56 4 -24 8 -26 41 -20 20 3 46 9 58 12 23 6 23 5 17 -67 -14 -168 59
-341 163 -385 78 -34 173 -3 226 73 61 89 72 128 72 264 l0 126 -40 78 c-23
46 -54 90 -75 106 -40 32 -102 48 -145 38z"/>
<path d="M2244 27235 c-19 -81 -17 -79 -114 -105 -59 -15 -65 -19 -62 -41 1
-13 7 -25 12 -27 4 -2 2 -19 -6 -37 -28 -68 -14 -127 44 -188 41 -43 105 -79
170 -97 45 -12 207 -15 234 -5 15 6 15 2 2 -51 -13 -47 -13 -58 -2 -65 33 -21
44 -9 63 69 l20 77 79 23 c44 12 81 24 84 26 2 3 -2 18 -10 33 -12 25 -12 33
0 63 28 70 -10 162 -90 215 -84 56 -222 84 -325 67 -29 -5 -53 -9 -53 -8 0 1
7 25 15 55 16 62 13 71 -20 71 -21 0 -25 -8 -41 -75z"/>
<path d="M5584 27236 c-17 -74 -18 -76 -58 -91 -23 -8 -59 -19 -81 -23 -35 -7
-40 -12 -37 -33 1 -13 6 -25 11 -27 5 -1 2 -19 -5 -40 -17 -49 -17 -75 2 -120
30 -73 111 -134 212 -162 45 -12 207 -15 234 -5 15 6 15 2 2 -51 -13 -47 -13
-58 -2 -65 34 -22 46 -10 65 69 l19 77 79 23 c43 12 80 24 82 25 2 2 -2 17 -7
34 -8 20 -8 38 0 57 39 105 -40 217 -188 268 -53 18 -88 22 -170 22 l-104 -1
8 36 c13 66 11 76 -18 79 -25 3 -27 0 -44 -72z"/>
<path d="M8926 27236 c-17 -74 -18 -75 -59 -90 -23 -8 -61 -20 -84 -26 -36 -9
-40 -13 -35 -33 3 -12 9 -24 13 -27 5 -3 1 -26 -8 -52 -15 -39 -15 -52 -4 -88
38 -128 211 -208 406 -189 33 3 61 5 62 4 1 0 -4 -25 -12 -55 -15 -57 -10 -70
26 -70 13 0 22 20 36 78 l19 77 79 23 c43 12 80 23 82 25 1 2 -1 18 -7 35 -6
21 -5 43 2 63 24 69 -14 160 -89 212 -74 51 -146 70 -266 70 l-109 1 8 35 c13
66 11 76 -17 79 -24 3 -26 -1 -43 -72z"/>
<path d="M12266 27236 c-17 -74 -18 -75 -59 -90 -23 -8 -61 -20 -84 -26 -36
-9 -40 -13 -35 -33 3 -12 9 -24 13 -27 5 -3 1 -26 -8 -52 -15 -39 -15 -52 -4
-88 38 -128 211 -208 406 -189 33 3 61 5 62 4 1 0 -4 -25 -12 -55 -15 -57 -10
-70 26 -70 13 0 22 20 36 78 l19 77 79 23 c43 12 80 24 83 27 2 2 0 17 -6 33
-7 20 -7 42 1 68 42 160 -165 304 -402 278 l-64 -7 8 39 c14 69 12 79 -16 82
-24 3 -26 -1 -43 -72z"/>
<path d="M18251 27075 c-42 -128 -74 -313 -75 -435 -1 -187 30 -260 218 -505
101 -131 145 -220 153 -307 l6 -67 -60 -58 c-79 -78 -136 -150 -128 -163 8
-14 71 35 153 118 l63 65 72 -5 c97 -6 158 -37 337 -172 228 -172 309 -202
510 -193 121 5 323 43 417 79 43 16 52 23 43 33 -23 28 -291 197 -411 259 -68
36 -167 79 -219 97 -86 29 -110 32 -245 37 -189 6 -313 -14 -472 -75 -10 -4
-8 7 6 39 10 25 29 85 42 134 20 77 23 112 23 254 -1 189 -15 256 -85 416 -62
141 -292 514 -318 514 -4 0 -18 -29 -30 -65z"/>
<path d="M177 27060 c-38 -10 -71 -20 -73 -23 -3 -2 0 -16 5 -29 l10 -26 86
21 c81 20 86 23 83 47 -4 32 -23 34 -111 10z"/>
<path d="M1847 27060 c-38 -10 -71 -20 -73 -23 -3 -2 0 -16 5 -29 l10 -26 86
21 c81 20 86 23 83 47 -4 32 -23 34 -111 10z"/>
<path d="M3521 27059 c-41 -10 -76 -21 -78 -23 -2 -2 1 -15 6 -28 l10 -26 86
21 c81 20 86 23 83 47 -4 32 -16 33 -107 9z"/>
<path d="M5195 27060 c-38 -11 -73 -19 -77 -19 -10 -1 6 -50 17 -52 6 -1 45 7
88 17 74 17 78 19 75 43 -4 33 -17 34 -103 11z"/>
<path d="M6865 27060 c-38 -11 -73 -19 -77 -19 -10 -1 6 -50 17 -52 6 -1 45 7
88 17 74 17 78 19 75 43 -4 33 -17 34 -103 11z"/>
<path d="M8528 27058 c-55 -14 -75 -24 -72 -34 2 -8 6 -20 8 -28 4 -12 19 -10
91 8 47 12 86 25 86 29 -1 4 -1 16 -1 27 0 24 -11 24 -112 -2z"/>
<path d="M10198 27058 c-55 -14 -75 -24 -72 -34 2 -8 6 -20 8 -28 4 -12 19
-10 91 8 47 12 86 25 86 29 -1 4 -1 16 -1 27 0 24 -11 24 -112 -2z"/>
<path d="M11868 27058 c-55 -14 -75 -24 -72 -34 2 -8 6 -20 8 -28 4 -12 19
-10 91 8 47 12 86 25 86 29 -1 4 -1 16 -1 27 0 24 -11 24 -112 -2z"/>
<path d="M13538 27058 c-55 -14 -75 -24 -72 -34 2 -8 6 -20 8 -28 4 -12 19
-10 91 8 47 12 86 25 86 29 -1 4 -1 16 -1 27 0 24 -11 24 -112 -2z"/>
<path d="M1559 26988 c-75 -19 -77 -20 -69 -46 8 -31 12 -31 110 -7 67 16 71
19 68 44 -4 33 -16 34 -109 9z"/>
<path d="M3234 26988 c-80 -20 -81 -21 -74 -47 8 -30 12 -30 110 -6 67 16 71
19 68 43 -2 14 -7 26 -13 28 -5 1 -47 -7 -91 -18z"/>
<path d="M4904 26988 c-76 -19 -81 -22 -76 -44 2 -13 8 -26 11 -29 7 -4 158
32 172 41 11 6 -3 54 -15 53 -6 -1 -47 -10 -92 -21z"/>
<path d="M6585 26990 c-38 -11 -73 -19 -77 -19 -11 -1 -10 -49 0 -55 7 -4 157
30 173 40 11 6 -3 54 -15 53 -6 0 -42 -9 -81 -19z"/>
<path d="M8248 26988 c-69 -18 -78 -23 -78 -44 0 -12 4 -25 8 -28 7 -4 157 30
173 40 11 6 -3 54 -15 53 -6 -1 -46 -10 -88 -21z"/>
<path d="M9918 26988 c-69 -18 -78 -23 -78 -44 0 -12 3 -25 8 -28 4 -2 47 5
95 17 65 16 86 25 82 35 -3 7 -5 20 -5 28 0 17 -6 17 -102 -8z"/>
<path d="M11588 26988 c-69 -18 -78 -23 -78 -44 0 -12 3 -25 8 -28 4 -2 47 5
95 17 65 16 86 25 82 35 -3 7 -5 20 -5 28 0 17 -6 17 -102 -8z"/>
<path d="M13258 26988 c-69 -18 -78 -23 -78 -44 0 -12 3 -25 8 -28 4 -2 47 5
95 17 65 16 86 25 82 35 -3 7 -5 20 -5 28 0 17 -6 17 -102 -8z"/>
<path d="M21762 26917 c-31 -88 -72 -296 -79 -402 -12 -190 25 -287 198 -520
124 -167 142 -199 164 -282 25 -97 23 -107 -53 -187 -81 -84 -122 -134 -122
-147 0 -24 34 -1 122 81 60 56 107 92 126 96 34 7 135 -17 190 -45 20 -10 105
-69 187 -130 233 -173 330 -210 520 -198 104 7 347 56 419 84 l49 20 -54 41
c-161 121 -442 277 -589 326 -192 63 -446 57 -659 -18 l-69 -24 24 69 c44 126
57 206 57 354 1 77 -5 169 -12 205 -17 88 -80 244 -148 365 -62 110 -215 346
-236 364 -11 8 -18 -2 -35 -52z"/>
<path d="M1278 26917 c-68 -18 -78 -24 -78 -43 0 -13 4 -25 9 -29 6 -3 48 4
94 16 83 20 85 21 78 47 -4 14 -11 27 -17 28 -5 1 -44 -7 -86 -19z"/>
<path d="M2953 26917 c-74 -18 -83 -23 -83 -43 0 -13 4 -25 9 -29 6 -3 48 4
96 16 78 20 85 23 79 43 -3 11 -9 24 -13 27 -3 3 -43 -3 -88 -14z"/>
<path d="M4623 26917 c-74 -18 -83 -23 -83 -43 0 -13 4 -25 9 -29 6 -3 49 4
96 16 66 17 85 25 81 36 -4 8 -6 21 -6 29 0 17 6 17 -97 -9z"/>
<path d="M6293 26917 c-74 -18 -83 -23 -83 -43 0 -13 4 -25 9 -29 6 -3 49 4
96 16 66 17 85 25 81 36 -4 8 -6 21 -6 29 0 17 6 17 -97 -9z"/>
<path d="M7963 26917 c-73 -18 -83 -23 -83 -43 0 -13 4 -25 9 -29 6 -3 49 4
96 16 66 17 85 25 81 36 -4 8 -6 21 -6 29 0 17 6 17 -97 -9z"/>
<path d="M9633 26917 c-73 -18 -83 -23 -83 -43 0 -13 4 -25 9 -29 6 -3 49 4
96 16 66 17 85 25 81 36 -4 8 -6 21 -6 29 0 17 6 17 -97 -9z"/>
<path d="M11303 26917 c-83 -21 -96 -32 -74 -65 12 -19 184 25 177 45 -4 8 -6
21 -6 29 0 17 6 17 -97 -9z"/>
<path d="M12973 26917 c-83 -21 -96 -32 -74 -65 12 -19 184 25 177 45 -4 8 -6
21 -6 29 0 17 6 17 -97 -9z"/>
<path d="M801 26473 c-33 -126 -34 -135 -20 -144 30 -20 43 -4 65 83 l21 86
-21 6 c-33 9 -35 8 -45 -31z"/>
<path d="M2471 26473 c-33 -126 -34 -135 -20 -144 30 -20 43 -4 65 83 l21 86
-21 6 c-33 9 -35 8 -45 -31z"/>
<path d="M4141 26473 c-33 -126 -34 -135 -20 -144 35 -22 45 -10 66 78 12 49
21 89 20 90 -1 1 -14 4 -29 8 -25 6 -28 4 -37 -32z"/>
<path d="M5811 26473 c-33 -126 -34 -135 -20 -144 35 -22 45 -10 66 78 12 49
21 89 20 90 -1 1 -14 4 -29 8 -25 6 -28 4 -37 -32z"/>
<path d="M7471 26424 c-18 -70 -19 -89 -9 -95 34 -22 44 -9 65 78 12 49 21 89
20 90 -1 1 -14 4 -28 8 -26 6 -27 5 -48 -81z"/>
<path d="M9141 26424 c-18 -70 -19 -89 -9 -95 34 -22 44 -9 65 78 12 49 21 89
20 90 -1 1 -14 4 -28 8 -26 6 -27 5 -48 -81z"/>
<path d="M10811 26424 c-18 -70 -19 -89 -9 -95 34 -22 44 -9 65 78 12 49 21
89 20 90 -1 1 -14 4 -28 8 -26 6 -27 5 -48 -81z"/>
<path d="M12481 26424 c-12 -47 -20 -88 -19 -89 2 -2 14 -6 28 -10 25 -6 26
-4 47 82 12 48 21 89 20 90 -1 1 -14 4 -28 8 -26 6 -27 5 -48 -81z"/>
<path d="M17421 26257 c-59 -159 -97 -468 -72 -588 19 -89 70 -184 179 -329
137 -182 174 -253 180 -346 l5 -73 -64 -63 c-85 -84 -132 -145 -119 -153 14
-9 70 34 154 118 l68 70 63 -6 c92 -9 170 -49 340 -176 83 -61 177 -125 210
-141 87 -44 191 -63 297 -56 170 11 474 83 465 110 -11 33 -381 259 -527 322
-230 100 -511 110 -748 26 -49 -18 -81 -25 -79 -18 22 56 58 187 68 242 7 41
10 126 7 223 -5 142 -8 164 -37 251 -43 126 -139 310 -256 486 -52 78 -99 145
-104 148 -5 4 -19 -18 -30 -47z"/>
<path d="M735 26208 c-2 -7 -13 -48 -23 -90 l-20 -76 26 -7 c31 -8 34 -3 56
91 15 64 16 78 5 85 -20 12 -39 11 -44 -3z"/>
<path d="M2405 26208 c-10 -31 -35 -137 -35 -151 0 -19 40 -33 49 -18 4 6 16
46 25 87 15 64 16 78 5 85 -20 12 -39 11 -44 -3z"/>
<path d="M4077 26213 c-9 -16 -40 -163 -36 -168 3 -2 16 -6 29 -7 22 -3 25 3
44 80 17 72 18 85 6 92 -18 12 -37 13 -43 3z"/>
<path d="M5747 26213 c-9 -16 -40 -163 -36 -168 3 -2 16 -6 29 -7 21 -3 25 4
45 84 l22 86 -21 6 c-28 8 -34 7 -39 -1z"/>
<path d="M7411 26183 c-25 -96 -33 -134 -29 -138 2 -3 15 -6 28 -7 21 -3 25 4
45 84 l22 86 -21 6 c-33 9 -35 8 -45 -31z"/>
<path d="M9081 26183 c-25 -96 -33 -134 -29 -138 2 -3 15 -6 28 -7 21 -3 25 4
45 84 l22 86 -21 6 c-33 9 -35 8 -45 -31z"/>
<path d="M10751 26183 c-25 -96 -33 -134 -29 -138 2 -3 15 -6 28 -7 21 -3 25
4 45 84 l22 86 -21 6 c-33 9 -35 8 -45 -31z"/>
<path d="M12421 26183 c-25 -96 -33 -134 -29 -138 2 -3 15 -6 28 -7 21 -3 25
4 45 84 19 74 20 88 8 92 -31 12 -43 5 -52 -31z"/>
<path d="M20935 26104 c-20 -49 -39 -125 -66 -263 -17 -91 -20 -141 -17 -241
4 -123 4 -128 44 -211 23 -47 86 -143 143 -219 128 -169 174 -258 179 -347 l4
-65 -69 -72 c-90 -92 -125 -135 -117 -147 9 -15 38 6 134 97 l90 86 64 -4 c88
-5 177 -52 346 -179 76 -57 172 -120 220 -143 83 -40 86 -41 215 -44 114 -3
148 0 280 27 83 16 176 40 208 52 56 22 56 22 34 39 -75 59 -313 205 -432 266
-184 93 -269 116 -450 122 -155 5 -256 -9 -385 -53 -40 -14 -75 -23 -77 -22
-1 2 8 37 22 77 45 132 58 229 52 390 -4 105 -11 165 -27 220 -25 89 -99 247
-171 368 -62 102 -187 290 -200 297 -4 3 -15 -11 -24 -31z"/>
<path d="M643 25843 c-12 -49 -21 -88 -20 -89 1 -1 14 -4 28 -7 26 -7 27 -5
48 80 18 69 19 88 9 94 -34 22 -44 9 -65 -78z"/>
<path d="M2313 25843 c-12 -49 -21 -88 -20 -89 1 -1 14 -4 28 -7 26 -7 27 -5
48 79 12 47 19 89 16 95 -4 5 -16 9 -29 9 -19 0 -24 -10 -43 -87z"/>
<path d="M3985 25853 c-10 -43 -20 -83 -22 -89 -4 -10 47 -27 55 -19 9 9 42
159 38 171 -3 8 -16 14 -29 14 -21 0 -25 -8 -42 -77z"/>
<path d="M5655 25853 c-10 -43 -20 -83 -22 -89 -4 -10 47 -27 55 -19 9 9 42
159 38 171 -3 8 -16 14 -29 14 -21 0 -25 -8 -42 -77z"/>
<path d="M7345 25918 c-2 -7 -13 -47 -23 -90 l-19 -76 26 -5 c14 -3 27 -4 29
-2 9 9 42 159 38 171 -7 17 -45 18 -51 2z"/>
<path d="M9015 25918 c-10 -30 -35 -137 -35 -151 0 -13 39 -32 48 -22 9 9 43
159 38 171 -7 17 -45 18 -51 2z"/>
<path d="M10685 25918 c-10 -30 -35 -137 -35 -151 0 -13 39 -32 48 -22 9 9 43
159 38 171 -7 17 -45 18 -51 2z"/>
<path d="M12355 25918 c-10 -30 -35 -137 -35 -151 0 -13 39 -32 48 -22 9 9 43
159 38 171 -7 17 -45 18 -51 2z"/>
<path d="M574 25565 c-17 -73 -18 -75 -58 -90 -23 -8 -60 -19 -84 -25 -38 -10
-42 -14 -36 -33 4 -12 10 -23 15 -25 4 -2 1 -19 -7 -37 -41 -99 13 -197 141
-257 58 -26 182 -51 223 -43 9 2 36 6 58 8 l42 5 -15 -56 c-12 -45 -12 -56 -1
-63 33 -21 44 -9 63 69 l20 77 79 23 c44 12 81 24 84 26 2 3 -2 18 -10 33 -12
24 -12 34 -2 58 19 45 17 76 -11 132 -55 110 -242 182 -402 155 -29 -5 -53 -9
-53 -8 0 1 7 25 15 55 16 62 13 71 -20 71 -21 0 -25 -8 -41 -75z"/>
<path d="M2246 25572 c-10 -37 -21 -73 -25 -80 -4 -7 -41 -22 -80 -32 -40 -10
-74 -20 -77 -22 -2 -2 0 -14 3 -27 5 -20 10 -22 42 -17 20 3 45 8 56 12 19 5
20 0 20 -113 0 -104 3 -125 26 -180 31 -74 61 -112 114 -147 35 -24 47 -27
100 -22 88 8 88 8 115 1 24 -6 26 -3 43 62 10 37 21 74 26 81 4 7 41 22 80 32
40 10 74 20 77 22 2 2 0 14 -3 27 -5 20 -10 22 -42 17 -20 -3 -45 -8 -56 -12
-19 -5 -20 0 -20 108 0 83 -5 127 -18 164 -42 122 -121 194 -211 194 -26 0
-57 -5 -68 -11 -14 -8 -23 -8 -31 0 -6 6 -21 11 -33 11 -19 0 -24 -10 -38 -68z"/>
<path d="M3914 25565 c-17 -73 -18 -75 -58 -90 -23 -8 -60 -19 -84 -25 -38
-10 -42 -14 -36 -33 4 -12 10 -23 15 -25 4 -2 1 -19 -7 -37 -41 -98 17 -200
147 -260 53 -24 179 -47 217 -40 9 2 36 6 58 8 l42 5 -15 -56 c-12 -45 -12
-56 -1 -63 34 -22 46 -10 65 68 21 85 16 81 141 113 38 10 42 14 36 33 -4 12
-11 25 -17 29 -7 4 -6 12 3 23 9 10 14 41 15 74 0 47 -5 65 -28 99 -69 98
-246 159 -393 134 l-51 -9 14 54 c16 61 12 73 -22 73 -21 0 -25 -8 -41 -75z"/>
<path d="M5586 25572 c-10 -37 -21 -73 -25 -80 -4 -7 -41 -22 -80 -32 -40 -10
-74 -20 -77 -22 -2 -2 0 -14 3 -27 5 -20 10 -22 42 -17 20 3 45 8 56 12 19 5
20 0 20 -113 1 -141 21 -204 90 -281 55 -62 88 -76 157 -68 74 8 80 8 109 1
26 -7 27 -5 43 62 9 38 21 74 25 81 4 7 41 22 80 32 40 10 74 20 77 22 2 2 0
14 -3 27 -5 20 -10 22 -42 17 -20 -3 -45 -8 -56 -12 -19 -5 -20 0 -20 108 0
83 -5 127 -18 164 -42 122 -121 194 -211 194 -26 0 -57 -5 -68 -11 -14 -8 -23
-8 -31 0 -6 6 -21 11 -33 11 -19 0 -24 -10 -38 -68z"/>
<path d="M7256 25566 c-17 -74 -18 -75 -59 -90 -23 -8 -61 -20 -85 -26 -38
-10 -42 -14 -36 -33 4 -12 10 -23 14 -25 4 -1 1 -19 -6 -40 -18 -51 -17 -80 5
-127 53 -115 222 -186 396 -165 33 4 61 6 62 6 1 -1 -4 -26 -12 -56 -15 -57
-10 -70 26 -70 13 0 22 20 36 77 21 85 16 81 141 113 38 10 42 14 36 33 -4 12
-10 23 -15 25 -4 2 -1 19 7 37 45 109 -31 226 -179 274 -80 26 -169 35 -231
23 l-48 -10 7 42 c13 74 12 81 -16 84 -24 3 -26 -1 -43 -72z"/>
<path d="M8940 25626 c0 -8 -9 -43 -20 -80 -19 -61 -23 -66 -58 -75 -128 -33
-120 -29 -114 -57 4 -24 8 -26 41 -20 20 3 46 9 58 12 23 6 23 6 17 -69 -12
-132 23 -252 96 -331 52 -56 85 -70 152 -62 74 8 80 8 109 1 26 -7 27 -5 43
62 9 38 21 74 25 81 4 7 41 22 80 32 40 10 74 20 77 22 2 2 0 14 -3 27 -5 20
-10 22 -42 17 -20 -3 -45 -9 -57 -12 -20 -5 -20 -3 -16 81 6 106 -10 185 -52
262 -43 78 -108 123 -178 123 -27 0 -59 -5 -70 -11 -14 -8 -23 -8 -31 0 -16
16 -57 14 -57 -3z"/>
<path d="M10595 25564 c-22 -86 -17 -82 -142 -114 -36 -9 -40 -13 -35 -33 3
-12 9 -24 13 -27 5 -3 1 -26 -8 -52 -15 -39 -15 -52 -4 -88 38 -127 220 -212
406 -190 33 4 61 6 62 6 1 -1 -4 -26 -12 -56 -15 -57 -10 -70 26 -70 13 0 22
20 36 78 l19 77 79 23 c43 12 79 23 81 25 6 6 -9 56 -17 52 -4 -3 -2 10 6 29
46 110 -30 227 -178 275 -80 26 -169 35 -231 23 l-48 -10 7 42 c13 74 12 81
-15 84 -24 3 -27 -2 -45 -74z"/>
<path d="M12270 25583 c-19 -86 -29 -102 -69 -112 -127 -33 -119 -29 -113 -57
4 -24 8 -26 41 -20 20 3 46 9 58 12 23 6 23 6 17 -69 -11 -130 23 -250 93
-328 129 -143 309 -59 363 170 20 85 9 225 -24 296 -36 80 -70 121 -116 145
-43 22 -119 26 -152 9 -14 -8 -23 -8 -31 0 -6 6 -21 11 -32 11 -18 0 -24 -9
-35 -57z"/>
<path d="M16582 25408 c-41 -120 -75 -314 -76 -438 -1 -188 26 -251 217 -505
106 -140 145 -221 154 -310 l6 -64 -60 -58 c-79 -78 -136 -150 -128 -163 8
-14 71 35 153 118 l63 65 72 -5 c94 -6 165 -43 347 -180 217 -163 302 -194
500 -185 172 8 482 80 464 108 -12 20 -295 200 -404 258 -213 111 -323 141
-523 141 -160 0 -280 -22 -423 -77 -7 -2 0 30 18 79 82 233 74 514 -22 739
-59 139 -294 526 -326 536 -5 2 -20 -25 -32 -59z"/>
<path d="M180 25388 c-41 -10 -76 -21 -78 -22 -1 -2 2 -15 7 -28 l10 -26 86
21 c81 20 86 23 83 47 -4 32 -16 33 -108 8z"/>
<path d="M1850 25388 c-41 -10 -76 -21 -78 -22 -1 -2 2 -15 7 -28 l10 -26 86
21 c81 20 86 23 83 47 -4 32 -16 33 -108 8z"/>
<path d="M3520 25388 c-41 -10 -76 -21 -78 -22 -1 -2 2 -15 7 -28 l10 -26 86
21 c81 20 86 23 83 47 -4 32 -16 33 -108 8z"/>
<path d="M5189 25388 c-73 -19 -76 -21 -70 -44 8 -30 10 -30 104 -8 74 17 78
19 75 43 -4 33 -16 34 -109 9z"/>
<path d="M6859 25388 c-73 -19 -76 -21 -70 -44 8 -30 10 -30 104 -8 74 17 78
19 75 43 -4 33 -16 34 -109 9z"/>
<path d="M8528 25388 c-55 -14 -75 -24 -72 -34 2 -8 6 -20 8 -28 4 -12 19 -10
91 8 47 12 86 25 86 29 -1 4 -1 16 -1 27 0 24 -11 24 -112 -2z"/>
<path d="M10198 25388 c-55 -14 -75 -24 -72 -34 2 -8 6 -20 8 -28 4 -12 19
-10 91 8 47 12 86 25 86 29 -1 4 -1 16 -1 27 0 24 -11 24 -112 -2z"/>
<path d="M11868 25388 c-55 -14 -75 -24 -72 -34 2 -8 6 -20 8 -28 4 -12 19
-10 91 8 47 12 86 25 86 29 -1 4 -1 16 -1 27 0 24 -11 24 -112 -2z"/>
<path d="M1563 25317 c-80 -20 -82 -22 -76 -46 3 -14 7 -27 8 -29 1 -2 42 7
89 19 83 21 87 23 84 47 -2 14 -7 26 -13 28 -5 1 -47 -8 -92 -19z"/>
<path d="M3234 25316 c-77 -20 -80 -22 -74 -46 7 -29 12 -29 110 -5 67 16 71
19 68 43 -2 14 -7 26 -13 28 -5 1 -46 -8 -91 -20z"/>
<path d="M4908 25318 c-69 -18 -78 -23 -78 -44 0 -12 4 -25 8 -28 7 -4 157 30
173 40 11 6 -3 54 -15 53 -6 -1 -46 -10 -88 -21z"/>
<path d="M6578 25318 c-69 -18 -78 -23 -78 -44 0 -12 4 -25 8 -28 7 -4 157 30
173 40 11 6 -3 54 -15 53 -6 -1 -46 -10 -88 -21z"/>
<path d="M8248 25318 c-69 -18 -78 -23 -78 -44 0 -12 3 -25 8 -28 4 -2 47 5
95 17 65 16 86 25 82 35 -3 7 -5 20 -5 28 0 17 -6 17 -102 -8z"/>
<path d="M9918 25318 c-69 -18 -78 -23 -78 -44 0 -12 3 -25 8 -28 4 -2 47 5
95 17 65 16 86 25 82 35 -3 7 -5 20 -5 28 0 17 -6 17 -102 -8z"/>
<path d="M11588 25318 c-69 -18 -78 -23 -78 -44 0 -12 3 -25 8 -28 4 -2 47 5
95 17 65 16 86 25 82 35 -3 7 -5 20 -5 28 0 17 -6 17 -102 -8z"/>
<path d="M20092 25247 c-31 -88 -72 -296 -79 -402 -12 -187 27 -293 187 -506
56 -73 114 -157 130 -185 36 -62 64 -166 56 -206 -4 -19 -40 -66 -96 -126 -86
-92 -105 -122 -77 -122 7 0 57 41 109 90 60 56 107 92 126 96 40 8 144 -20
206 -56 28 -16 112 -74 185 -130 213 -160 319 -199 506 -187 113 8 372 61 394
81 10 9 28 16 40 16 41 0 17 23 -105 105 -240 160 -438 258 -586 291 -49 11
-120 17 -218 17 -155 0 -233 -13 -355 -57 -38 -14 -70 -24 -72 -23 -1 2 9 34
23 72 44 122 57 200 57 355 0 222 -39 352 -173 586 -67 117 -204 327 -224 343
-9 8 -18 -5 -34 -52z"/>
<path d="M1283 25246 c-73 -17 -83 -22 -83 -42 0 -13 4 -25 9 -29 6 -3 48 4
94 16 79 20 84 22 79 45 -2 13 -7 26 -11 27 -3 2 -43 -5 -88 -17z"/>
<path d="M2953 25246 c-73 -17 -83 -22 -83 -42 0 -13 4 -25 9 -29 6 -3 48 4
96 16 78 20 85 23 79 43 -3 11 -9 24 -13 27 -3 3 -43 -3 -88 -15z"/>
<path d="M4623 25247 c-73 -18 -83 -23 -83 -43 0 -13 4 -25 9 -29 6 -3 49 4
96 16 66 17 85 25 81 36 -4 8 -6 21 -6 29 0 17 6 17 -97 -9z"/>
<path d="M6293 25247 c-73 -18 -83 -23 -83 -43 0 -13 4 -25 9 -29 6 -3 49 4
96 16 66 17 85 25 81 36 -4 8 -6 21 -6 29 0 17 6 17 -97 -9z"/>
<path d="M7963 25247 c-73 -18 -83 -23 -83 -43 0 -13 4 -25 9 -29 6 -3 49 4
96 16 66 17 85 25 81 36 -4 8 -6 21 -6 29 0 17 6 17 -97 -9z"/>
<path d="M9633 25247 c-73 -18 -83 -23 -83 -43 0 -13 4 -25 9 -29 6 -3 49 4
96 16 66 17 85 25 81 36 -4 8 -6 21 -6 29 0 17 6 17 -97 -9z"/>
<path d="M11303 25247 c-83 -21 -96 -32 -74 -65 12 -19 184 25 177 45 -4 8 -6
21 -6 29 0 17 6 17 -97 -9z"/>
<path d="M801 24803 c-33 -126 -34 -135 -20 -144 30 -20 43 -4 65 83 l21 86
-21 6 c-33 9 -35 8 -45 -31z"/>
<path d="M2471 24803 c-33 -126 -34 -135 -20 -144 30 -20 43 -4 65 83 l21 86
-21 6 c-33 9 -35 8 -45 -31z"/>
<path d="M4141 24803 c-33 -126 -34 -135 -20 -144 35 -22 45 -10 66 78 12 49
21 89 20 90 -1 1 -14 4 -29 8 -25 6 -28 4 -37 -32z"/>
<path d="M5811 24803 c-33 -126 -34 -135 -20 -144 35 -22 45 -10 66 78 12 49
21 89 20 90 -1 1 -14 4 -29 8 -25 6 -28 4 -37 -32z"/>
<path d="M7471 24754 c-18 -70 -19 -89 -9 -95 34 -22 44 -9 65 78 12 49 21 89
20 90 -1 1 -14 4 -28 8 -26 6 -27 5 -48 -81z"/>
<path d="M9141 24754 c-18 -70 -19 -89 -9 -95 34 -22 44 -9 65 78 12 49 21 89
20 90 -1 1 -14 4 -28 8 -26 6 -27 5 -48 -81z"/>
<path d="M10811 24754 c-18 -70 -19 -89 -9 -95 34 -22 44 -9 65 78 12 49 21
89 20 90 -1 1 -14 4 -28 8 -26 6 -27 5 -48 -81z"/>
<path d="M15751 24587 c-59 -159 -97 -468 -72 -588 19 -89 70 -184 179 -329
137 -182 174 -253 180 -346 l5 -73 -64 -63 c-85 -84 -132 -145 -119 -153 14
-9 70 34 152 117 61 61 72 68 107 68 54 0 150 -31 212 -70 29 -17 104 -71 168
-120 208 -157 277 -185 456 -184 173 1 513 74 502 107 -5 17 -224 161 -353
233 -243 137 -343 166 -569 167 -171 1 -241 -10 -369 -56 -42 -16 -66 -20 -63
-13 55 143 77 263 77 423 0 188 -27 299 -118 480 -66 130 -255 432 -282 448
-5 3 -18 -19 -29 -48z"/>
<path d="M735 24538 c-2 -7 -13 -48 -23 -90 l-20 -76 26 -7 c31 -8 34 -3 56
91 15 64 16 78 5 85 -20 12 -39 11 -44 -3z"/>
<path d="M2405 24538 c-10 -31 -35 -137 -35 -151 0 -19 40 -33 49 -18 4 6 16
46 25 87 15 64 16 78 5 85 -20 12 -39 11 -44 -3z"/>
<path d="M4077 24543 c-3 -5 -13 -43 -23 -86 -16 -68 -16 -80 -3 -88 31 -20
43 -4 63 79 17 72 18 84 6 92 -18 12 -37 13 -43 3z"/>
<path d="M5747 24543 c-3 -5 -13 -43 -23 -86 -16 -68 -16 -80 -3 -88 30 -20
43 -4 65 83 l21 86 -21 6 c-28 8 -34 7 -39 -1z"/>
<path d="M7411 24513 c-33 -126 -34 -135 -20 -144 30 -20 43 -4 65 83 l21 86
-21 6 c-33 9 -35 8 -45 -31z"/>
<path d="M9081 24513 c-25 -96 -33 -134 -29 -138 2 -3 15 -6 28 -7 21 -3 25 4
45 84 l22 86 -21 6 c-33 9 -35 8 -45 -31z"/>
<path d="M10751 24513 c-25 -96 -33 -134 -29 -138 2 -3 15 -6 28 -7 21 -3 25
4 45 84 l22 86 -21 6 c-33 9 -35 8 -45 -31z"/>
<path d="M19264 24435 c-41 -98 -85 -343 -85 -473 0 -177 29 -249 188 -460
131 -174 174 -257 181 -350 l4 -69 -47 -44 c-67 -62 -146 -159 -140 -170 10
-15 38 6 135 98 l90 86 66 -6 c90 -7 176 -52 343 -177 142 -107 240 -163 317
-180 63 -14 225 -14 311 1 105 17 268 57 310 75 l38 16 -33 26 c-75 60 -315
207 -437 267 -163 81 -252 105 -416 112 -149 7 -256 -7 -384 -47 -49 -16 -90
-28 -92 -26 -2 1 8 36 22 77 36 104 55 224 55 344 0 199 -42 346 -161 561 -63
113 -222 358 -239 369 -6 4 -17 -10 -26 -30z"/>
<path d="M643 24173 c-12 -49 -21 -88 -20 -89 1 -1 14 -4 28 -7 26 -7 27 -5
48 80 18 69 19 88 9 94 -34 22 -44 9 -65 -78z"/>
<path d="M2313 24173 c-12 -49 -21 -88 -20 -89 1 -1 14 -4 28 -7 26 -7 27 -5
48 80 18 69 19 88 9 94 -34 22 -44 9 -65 -78z"/>
<path d="M3985 24183 c-10 -43 -20 -83 -22 -89 -5 -14 50 -26 58 -13 3 5 14
44 23 85 15 64 16 78 5 85 -34 22 -45 10 -64 -68z"/>
<path d="M5655 24183 c-10 -43 -20 -83 -22 -89 -5 -14 50 -26 58 -13 3 5 14
44 23 85 15 64 16 78 5 85 -34 22 -45 10 -64 -68z"/>
<path d="M7345 24248 c-2 -7 -13 -47 -23 -90 l-19 -76 26 -5 c32 -6 33 -4 55
89 15 64 16 78 5 85 -20 12 -39 11 -44 -3z"/>
<path d="M9015 24248 c-10 -30 -35 -137 -35 -151 0 -13 39 -32 48 -22 9 9 43
159 38 171 -7 17 -45 18 -51 2z"/>
<path d="M10685 24248 c-10 -30 -35 -137 -35 -151 0 -13 39 -32 48 -22 9 9 43
159 38 171 -7 17 -45 18 -51 2z"/>
<path d="M576 23903 c-9 -38 -21 -74 -25 -81 -4 -7 -41 -22 -80 -32 -40 -10
-74 -20 -77 -22 -2 -2 0 -14 3 -27 5 -20 10 -22 42 -17 20 3 45 8 56 12 19 5
20 0 20 -113 1 -97 5 -128 23 -174 29 -72 63 -117 115 -152 38 -26 48 -28 102
-23 87 8 88 8 115 1 24 -6 26 -3 43 62 10 37 21 74 26 81 4 7 41 22 80 32 40
10 74 20 77 22 2 2 0 14 -3 27 -5 20 -10 22 -42 17 -20 -3 -45 -8 -56 -12 -19
-5 -20 0 -21 113 0 131 -12 174 -66 254 -18 26 -50 59 -72 74 -36 23 -48 26
-101 21 -88 -8 -88 -8 -116 -1 -26 7 -27 5 -43 -62z"/>
<path d="M2244 23895 c-17 -73 -18 -75 -58 -90 -23 -8 -60 -19 -84 -25 -38
-10 -42 -14 -36 -33 4 -12 10 -23 15 -25 4 -2 1 -19 -7 -37 -41 -99 13 -197
141 -256 63 -30 183 -52 234 -44 17 3 44 7 60 10 l29 4 -15 -56 c-12 -46 -12
-57 -1 -64 34 -22 45 -10 64 68 21 85 16 80 142 113 38 10 42 14 36 33 -4 12
-11 25 -16 28 -4 3 -1 23 8 44 42 103 -34 215 -181 263 -79 26 -158 34 -225
23 -30 -5 -56 -8 -57 -7 -1 1 4 26 12 56 15 57 10 70 -27 70 -12 0 -21 -19
-34 -75z"/>
<path d="M3916 23903 c-9 -38 -21 -74 -25 -81 -4 -7 -41 -22 -80 -32 -40 -10
-74 -20 -77 -22 -2 -2 0 -14 3 -27 5 -20 10 -22 42 -17 20 3 45 8 56 12 19 5
20 0 20 -113 0 -104 3 -125 26 -180 31 -74 61 -112 114 -147 35 -24 47 -27
100 -22 88 8 88 8 116 1 26 -7 27 -5 43 62 9 38 21 74 25 81 4 7 41 22 80 32
40 10 74 20 77 22 2 2 0 14 -3 27 -5 20 -10 22 -42 17 -20 -3 -45 -8 -56 -12
-19 -5 -20 0 -20 108 0 83 -5 127 -18 164 -26 76 -73 141 -123 170 -38 22 -52
25 -101 20 -82 -8 -85 -8 -114 -1 -26 7 -27 5 -43 -62z"/>
<path d="M5584 23895 c-17 -73 -18 -75 -58 -90 -23 -8 -60 -19 -84 -25 -38
-10 -42 -14 -36 -33 4 -12 10 -23 14 -25 4 -1 1 -22 -7 -45 -45 -131 78 -259
275 -287 39 -5 85 -8 101 -5 17 3 44 7 60 10 l29 4 -15 -56 c-12 -46 -12 -57
-1 -64 34 -22 46 -10 65 68 21 85 16 81 141 113 38 10 42 14 36 33 -4 12 -10
23 -15 25 -4 2 -1 20 8 40 46 110 -42 231 -202 278 -61 18 -189 24 -237 11
l-26 -7 14 55 c17 63 13 75 -21 75 -21 0 -25 -8 -41 -75z"/>
<path d="M7257 23903 c-10 -38 -21 -74 -26 -81 -4 -7 -41 -22 -80 -32 -40 -10
-74 -20 -77 -22 -2 -2 0 -14 3 -27 5 -20 10 -22 42 -17 20 3 45 8 56 12 19 5
20 0 20 -113 1 -141 21 -204 90 -281 55 -62 88 -76 157 -68 74 8 80 8 109 1
26 -7 27 -5 43 62 9 38 21 74 25 81 4 7 41 22 80 32 40 10 74 20 77 22 2 2 0
14 -3 27 -5 20 -10 22 -42 17 -20 -3 -45 -8 -56 -12 -19 -5 -20 0 -20 108 0
83 -5 127 -18 164 -42 122 -121 194 -211 194 -26 0 -57 -5 -68 -11 -14 -8 -23
-8 -31 0 -6 6 -20 11 -32 11 -17 0 -24 -11 -38 -67z"/>
<path d="M8925 23894 c-22 -86 -17 -82 -142 -114 -36 -9 -40 -13 -35 -33 3
-12 9 -24 13 -27 5 -3 1 -26 -8 -52 -22 -60 -7 -113 48 -173 72 -78 234 -126
359 -106 30 5 56 8 57 7 1 -1 -4 -26 -12 -56 -15 -57 -10 -70 27 -70 12 0 21
19 34 75 17 73 18 75 58 90 23 8 60 19 84 25 38 10 42 14 36 33 -4 12 -10 23
-15 25 -4 2 -1 19 7 37 45 109 -31 226 -179 274 -81 26 -159 34 -226 23 l-53
-9 7 41 c13 74 12 81 -15 84 -24 3 -27 -2 -45 -74z"/>
<path d="M10600 23913 c-19 -86 -29 -102 -69 -112 -127 -33 -119 -29 -113 -57
4 -24 8 -26 41 -20 20 3 46 9 58 12 23 6 23 6 17 -69 -11 -130 23 -250 92
-327 48 -53 82 -70 140 -70 133 0 234 151 234 350 0 196 -102 350 -232 350
-27 0 -59 -5 -70 -11 -14 -8 -23 -8 -31 0 -6 6 -21 11 -32 11 -18 0 -24 -9
-35 -57z"/>
<path d="M14912 23738 c-12 -35 -33 -119 -47 -188 -66 -338 -42 -450 151 -705
52 -70 109 -149 126 -176 37 -61 68 -156 68 -211 0 -35 -6 -46 -58 -96 -79
-77 -135 -149 -127 -162 8 -14 71 35 153 118 l62 64 68 -4 c93 -5 166 -42 342
-173 230 -171 310 -201 510 -192 122 5 323 43 418 79 l55 21 -34 28 c-109 89
-432 275 -565 325 -197 74 -486 73 -694 -2 -37 -13 -70 -24 -72 -24 -3 0 5 30
19 67 45 125 57 198 57 363 -1 222 -34 339 -167 574 -71 125 -218 348 -233
353 -6 2 -20 -25 -32 -59z"/>
<path d="M178 23718 c-76 -20 -78 -21 -72 -47 4 -14 7 -27 8 -28 1 -1 41 8 89
20 83 20 88 23 85 47 -4 32 -16 33 -110 8z"/>
<path d="M1850 23718 c-41 -10 -76 -21 -78 -22 -1 -2 2 -15 7 -28 l10 -26 86
21 c81 20 86 23 83 47 -4 32 -16 33 -108 8z"/>
<path d="M3520 23718 c-41 -10 -76 -21 -78 -22 -1 -2 2 -15 7 -28 l10 -26 86
21 c81 20 86 23 83 47 -4 32 -16 33 -108 8z"/>
<path d="M5189 23718 c-73 -19 -76 -21 -70 -44 8 -30 10 -30 104 -8 74 17 78
19 75 43 -4 33 -16 34 -109 9z"/>
<path d="M6859 23718 c-73 -19 -76 -21 -70 -44 8 -30 10 -30 104 -8 74 17 78
19 75 43 -4 33 -16 34 -109 9z"/>
<path d="M8528 23718 c-55 -14 -75 -24 -72 -34 2 -8 6 -20 8 -28 4 -12 19 -10
91 8 47 12 86 25 86 29 -1 4 -1 16 -1 27 0 24 -11 24 -112 -2z"/>
<path d="M10198 23718 c-55 -14 -75 -24 -72 -34 2 -8 6 -20 8 -28 4 -12 19
-10 91 8 47 12 86 25 86 29 -1 4 -1 16 -1 27 0 24 -11 24 -112 -2z"/>
<path d="M1563 23647 c-80 -20 -82 -22 -76 -46 3 -14 7 -27 8 -29 1 -2 42 7
89 19 83 21 87 23 84 47 -2 14 -7 26 -13 28 -5 1 -47 -8 -92 -19z"/>
<path d="M3234 23646 c-77 -20 -80 -22 -74 -46 7 -29 12 -29 110 -5 67 16 71
19 68 43 -2 14 -7 26 -13 28 -5 1 -46 -8 -91 -20z"/>
<path d="M4908 23648 c-69 -18 -78 -23 -78 -44 0 -12 4 -25 8 -28 4 -2 45 5
91 16 78 20 82 22 79 46 -2 14 -7 26 -13 28 -5 1 -45 -7 -87 -18z"/>
<path d="M6578 23648 c-69 -18 -78 -23 -78 -44 0 -12 3 -25 8 -28 4 -2 47 5
95 17 65 16 86 25 82 35 -3 7 -5 20 -5 28 0 17 -6 17 -102 -8z"/>
<path d="M8248 23648 c-69 -18 -78 -23 -78 -44 0 -12 3 -25 8 -28 4 -2 47 5
95 17 65 16 86 25 82 35 -3 7 -5 20 -5 28 0 17 -6 17 -102 -8z"/>
<path d="M9918 23648 c-69 -18 -78 -23 -78 -44 0 -12 3 -25 8 -28 4 -2 47 5
95 17 65 16 86 25 82 35 -3 7 -5 20 -5 28 0 17 -6 17 -102 -8z"/>
<path d="M18436 23639 c-52 -177 -86 -348 -93 -475 -11 -191 28 -288 208 -524
52 -69 108 -151 123 -183 31 -66 50 -158 40 -190 -4 -12 -47 -64 -95 -116 -49
-52 -89 -101 -89 -108 0 -29 32 -9 121 76 52 48 104 91 116 95 33 10 124 -9
190 -40 32 -15 114 -71 183 -123 239 -182 333 -219 529 -208 171 11 480 84
464 110 -16 26 -326 218 -456 282 -194 96 -280 118 -472 118 -150 0 -244 -15
-364 -58 -36 -13 -66 -23 -68 -22 -1 2 9 34 23 72 68 186 79 424 29 620 -23
91 -152 343 -255 500 -115 174 -128 192 -134 174z"/>
<path d="M1283 23576 c-73 -17 -83 -22 -83 -42 0 -13 4 -25 9 -29 6 -3 48 4
94 16 79 20 84 22 79 45 -2 13 -7 26 -11 27 -3 2 -43 -5 -88 -17z"/>
<path d="M2953 23576 c-73 -17 -83 -22 -83 -42 0 -13 4 -25 9 -29 6 -3 48 4
96 16 78 20 85 23 79 43 -3 11 -9 24 -13 27 -3 3 -43 -3 -88 -15z"/>
<path d="M4623 23576 c-73 -17 -83 -22 -83 -42 0 -13 4 -25 9 -29 6 -3 48 4
96 16 78 20 85 23 79 43 -3 11 -9 24 -13 27 -3 3 -43 -3 -88 -15z"/>
<path d="M6293 23577 c-73 -18 -83 -23 -83 -43 0 -13 4 -25 9 -29 6 -3 49 4
96 16 66 17 85 25 81 36 -4 8 -6 21 -6 29 0 17 6 17 -97 -9z"/>
<path d="M7963 23577 c-73 -18 -83 -23 -83 -43 0 -13 4 -25 9 -29 6 -3 49 4
96 16 66 17 85 25 81 36 -4 8 -6 21 -6 29 0 17 6 17 -97 -9z"/>
<path d="M9633 23577 c-73 -18 -83 -23 -83 -43 0 -13 4 -25 9 -29 6 -3 49 4
96 16 66 17 85 25 81 36 -4 8 -6 21 -6 29 0 17 6 17 -97 -9z"/>
<path d="M801 23133 c-33 -126 -34 -135 -20 -144 30 -20 43 -4 65 83 l21 86
-21 6 c-33 9 -35 8 -45 -31z"/>
<path d="M2471 23133 c-33 -126 -34 -135 -20 -144 36 -22 45 -10 66 80 l20 90
-21 5 c-33 9 -35 8 -45 -31z"/>
<path d="M4141 23133 c-33 -126 -34 -135 -20 -144 35 -22 45 -10 66 78 12 49
21 89 20 90 -1 1 -14 4 -29 8 -25 6 -28 4 -37 -32z"/>
<path d="M5811 23133 c-33 -126 -34 -135 -20 -144 35 -22 45 -10 66 78 12 49
21 89 20 90 -1 1 -14 4 -29 8 -25 6 -28 4 -37 -32z"/>
<path d="M7471 23084 c-18 -70 -19 -89 -9 -95 34 -22 44 -9 65 78 12 49 21 89
20 90 -1 1 -14 4 -28 8 -26 6 -27 5 -48 -81z"/>
<path d="M9141 23084 c-18 -70 -19 -89 -9 -95 34 -22 44 -9 65 78 12 49 21 89
20 90 -1 1 -14 4 -28 8 -26 6 -27 5 -48 -81z"/>
<path d="M14082 22918 c-35 -93 -74 -296 -79 -415 -10 -203 18 -278 192 -513
131 -176 168 -249 173 -342 l4 -67 -63 -63 c-85 -84 -132 -145 -119 -153 14
-9 70 34 152 117 61 61 72 68 107 68 54 0 150 -31 211 -69 28 -17 106 -73 174
-125 252 -192 376 -218 710 -150 136 27 246 61 246 75 0 12 -243 173 -369 243
-225 127 -402 173 -616 162 -112 -6 -232 -30 -324 -65 -28 -10 -51 -17 -51
-14 0 3 11 36 25 74 43 120 58 228 53 389 -6 184 -28 269 -118 445 -65 128
-205 358 -259 424 l-28 34 -21 -55z"/>
<path d="M735 22868 c-2 -7 -13 -48 -23 -90 l-20 -76 26 -7 c31 -8 34 -3 56
91 15 64 16 78 5 85 -20 12 -39 11 -44 -3z"/>
<path d="M2405 22868 c-2 -7 -13 -48 -23 -90 l-20 -76 25 -7 c13 -3 27 -3 32
-1 4 3 16 42 26 86 16 70 17 83 4 91 -20 12 -39 11 -44 -3z"/>
<path d="M4077 22873 c-3 -5 -13 -43 -23 -86 -16 -68 -16 -80 -3 -88 31 -20
43 -4 63 79 17 72 18 84 6 92 -18 12 -37 13 -43 3z"/>
<path d="M5747 22873 c-3 -5 -13 -43 -23 -86 -16 -68 -16 -80 -3 -88 30 -20
43 -4 65 83 l21 86 -21 6 c-28 8 -34 7 -39 -1z"/>
<path d="M7411 22843 c-33 -126 -34 -135 -20 -144 30 -20 43 -4 65 83 l21 86
-21 6 c-33 9 -35 8 -45 -31z"/>
<path d="M9081 22843 c-33 -126 -34 -135 -20 -144 30 -20 43 -4 65 83 l21 86
-21 6 c-33 9 -35 8 -45 -31z"/>
<path d="M17602 22783 c-31 -60 -78 -276 -91 -412 -15 -167 14 -296 90 -408
18 -26 73 -102 123 -168 109 -146 147 -223 154 -311 l5 -66 -70 -71 c-90 -93
-125 -136 -117 -148 9 -15 38 6 134 98 l90 86 65 -5 c87 -7 164 -46 310 -154
174 -130 209 -153 278 -181 117 -47 286 -47 511 2 127 27 209 55 210 70 0 14
-231 168 -359 239 -221 123 -370 166 -570 166 -120 0 -240 -19 -344 -55 -41
-14 -76 -23 -78 -22 -1 2 8 37 22 78 36 104 55 224 55 344 0 200 -42 346 -161
561 -61 109 -223 359 -239 369 -5 3 -13 -2 -18 -12z"/>
<path d="M643 22503 c-12 -49 -21 -89 -20 -90 1 -1 14 -4 28 -8 26 -6 27 -5
48 81 18 70 19 89 9 95 -34 22 -44 9 -65 -78z"/>
<path d="M2315 22513 c-10 -43 -20 -83 -22 -89 -6 -15 48 -29 57 -14 3 6 15
45 24 86 15 64 16 78 5 85 -34 22 -45 10 -64 -68z"/>
<path d="M3985 22513 c-10 -43 -20 -83 -22 -89 -6 -15 48 -29 57 -14 3 6 15
45 24 86 15 64 16 78 5 85 -34 22 -45 10 -64 -68z"/>
<path d="M5655 22513 c-10 -43 -20 -83 -22 -89 -6 -15 48 -29 57 -14 3 6 15
45 24 86 15 64 16 78 5 85 -34 22 -45 10 -64 -68z"/>
<path d="M7345 22578 c-2 -7 -13 -47 -23 -90 l-19 -76 26 -5 c32 -6 33 -4 55
89 15 64 16 78 5 85 -20 12 -39 11 -44 -3z"/>
<path d="M9015 22578 c-2 -7 -13 -47 -23 -90 l-19 -76 26 -5 c32 -6 33 -4 55
89 15 64 16 78 5 85 -20 12 -39 11 -44 -3z"/>
<path d="M574 22225 c-17 -73 -18 -75 -58 -90 -23 -8 -60 -19 -84 -25 -38 -10
-42 -14 -36 -33 4 -12 10 -23 15 -25 4 -2 1 -19 -7 -37 -62 -149 100 -295 331
-298 44 -1 92 2 107 6 l26 7 -15 -57 c-12 -46 -12 -57 -1 -64 32 -21 44 -9 63
68 22 85 17 81 143 113 38 10 42 14 36 33 -4 12 -10 24 -15 27 -4 3 -1 26 8
52 22 60 7 113 -48 173 -73 79 -230 126 -354 106 -33 -5 -61 -8 -62 -7 -1 1 4
26 12 56 15 57 10 70 -27 70 -12 0 -21 -19 -34 -75z"/>
<path d="M2246 22233 c-9 -38 -21 -74 -25 -81 -4 -7 -41 -22 -80 -32 -40 -10
-74 -20 -77 -22 -2 -2 0 -14 3 -27 5 -20 10 -22 42 -17 20 3 45 8 56 12 19 5
20 0 20 -108 0 -83 5 -127 18 -164 26 -76 73 -141 123 -170 38 -22 52 -25 101
-20 82 8 85 8 114 1 26 -7 27 -5 43 62 9 38 21 74 25 81 4 7 41 22 80 32 40
10 74 20 77 22 2 2 0 14 -3 27 -5 20 -10 22 -42 17 -20 -3 -45 -8 -56 -12 -19
-5 -20 0 -21 113 0 131 -12 174 -66 254 -18 26 -50 59 -72 74 -36 23 -48 26
-101 21 -88 -8 -88 -8 -116 -1 -26 7 -27 5 -43 -62z"/>
<path d="M3913 22223 c-21 -85 -16 -81 -141 -113 -38 -10 -42 -14 -36 -33 4
-12 10 -23 15 -25 4 -2 1 -20 -8 -40 -60 -145 106 -293 332 -295 44 -1 92 2
107 6 l26 7 -15 -57 c-12 -46 -12 -57 -1 -64 34 -22 46 -10 65 68 21 85 16 81
141 113 38 10 42 14 36 33 -4 12 -10 23 -14 25 -4 1 -1 19 6 40 16 45 17 66 4
113 -35 127 -279 220 -452 173 -15 -4 -15 0 -1 52 12 47 12 58 1 65 -34 22
-46 10 -65 -68z"/>
<path d="M5586 22233 c-9 -38 -21 -74 -25 -81 -4 -7 -41 -22 -80 -32 -40 -10
-74 -20 -77 -22 -2 -2 0 -14 3 -27 5 -20 10 -22 42 -17 20 3 45 8 56 12 19 5
20 0 20 -113 0 -104 3 -125 26 -180 31 -74 61 -112 114 -147 35 -24 47 -27
100 -22 88 8 88 8 116 1 26 -7 27 -5 43 62 9 38 21 74 25 81 4 7 41 22 80 32
40 10 74 20 77 22 2 2 0 14 -3 27 -5 20 -10 22 -42 17 -20 -3 -45 -8 -56 -12
-19 -5 -20 0 -20 108 0 83 -5 127 -18 164 -26 76 -73 141 -123 170 -38 22 -52
25 -101 20 -82 -8 -85 -8 -114 -1 -26 7 -27 5 -43 -62z"/>
<path d="M7255 22223 c-22 -85 -17 -81 -143 -113 -38 -10 -42 -14 -36 -33 4
-12 10 -24 15 -27 4 -3 1 -26 -8 -52 -22 -60 -7 -113 48 -173 73 -79 230 -126
354 -106 33 5 61 8 62 7 1 -1 -4 -26 -12 -56 -15 -57 -10 -70 27 -70 12 0 21
19 34 75 17 73 18 75 58 90 23 8 60 19 84 25 38 10 42 14 36 33 -4 12 -10 23
-15 25 -4 2 -1 20 8 40 46 110 -42 231 -202 278 -61 18 -189 24 -237 11 l-26
-7 14 55 c16 62 13 75 -19 75 -20 0 -25 -10 -42 -77z"/>
<path d="M8930 22243 c-19 -86 -29 -102 -69 -112 -127 -33 -119 -29 -113 -57
4 -24 8 -26 41 -20 20 3 46 9 58 12 22 6 22 5 17 -77 -6 -89 11 -190 42 -250
21 -42 82 -107 115 -125 76 -39 182 -2 238 83 149 225 47 603 -163 603 -26 0
-57 -5 -68 -11 -14 -8 -23 -8 -31 0 -6 6 -21 11 -32 11 -18 0 -24 -9 -35 -57z"/>
<path d="M13241 22067 c-12 -35 -32 -119 -46 -188 -66 -340 -42 -448 159 -716
120 -161 148 -208 170 -282 30 -102 25 -122 -52 -199 -85 -85 -126 -138 -117
-152 8 -14 71 35 153 118 l62 64 68 -4 c91 -5 167 -42 317 -155 146 -110 217
-156 287 -185 47 -20 70 -23 208 -22 130 0 174 4 275 26 107 24 235 63 235 73
0 2 -35 28 -77 58 -211 148 -450 276 -594 317 -55 16 -113 23 -224 27 -167 6
-271 -8 -394 -52 -38 -14 -71 -25 -73 -25 -3 0 5 30 19 67 44 123 56 198 57
358 0 227 -33 337 -172 585 -72 128 -219 350 -232 350 -5 0 -18 -28 -29 -63z"/>
<path d="M178 22048 c-76 -20 -78 -21 -72 -47 4 -14 7 -27 8 -28 1 -1 41 8 89
20 83 20 88 23 85 47 -4 32 -16 33 -110 8z"/>
<path d="M1848 22048 c-76 -20 -78 -21 -72 -47 4 -14 7 -27 8 -28 1 -1 41 8
89 20 83 20 88 23 85 47 -4 32 -16 33 -110 8z"/>
<path d="M3520 22048 c-41 -10 -76 -21 -78 -22 -1 -2 2 -15 7 -28 l10 -26 86
21 c81 20 86 23 83 47 -4 32 -16 33 -108 8z"/>
<path d="M5190 22048 c-41 -10 -76 -21 -78 -22 -1 -2 2 -15 7 -28 l10 -26 86
21 c81 20 86 23 83 47 -4 32 -16 33 -108 8z"/>
<path d="M6859 22048 c-73 -19 -76 -21 -70 -44 8 -30 10 -30 104 -8 74 17 78
19 75 43 -4 33 -16 34 -109 9z"/>
<path d="M8529 22048 c-73 -19 -76 -21 -70 -44 8 -30 10 -30 104 -8 74 17 78
19 75 43 -4 33 -16 34 -109 9z"/>
<path d="M1563 21977 c-80 -20 -82 -22 -76 -46 3 -14 7 -27 8 -29 1 -2 42 7
89 19 83 21 87 23 84 47 -2 14 -7 26 -13 28 -5 1 -47 -8 -92 -19z"/>
<path d="M3238 21978 c-75 -19 -78 -21 -78 -49 0 -16 2 -29 5 -29 3 0 44 10
91 21 81 21 85 23 82 47 -2 14 -7 26 -13 28 -5 1 -45 -7 -87 -18z"/>
<path d="M4908 21978 c-69 -18 -78 -23 -78 -44 0 -12 4 -25 8 -28 4 -2 46 5
93 17 81 21 85 23 79 46 -3 14 -10 26 -15 27 -6 1 -45 -7 -87 -18z"/>
<path d="M6578 21978 c-69 -18 -78 -23 -78 -44 0 -12 3 -25 8 -28 4 -2 47 5
95 17 65 16 86 25 82 35 -3 7 -5 20 -5 28 0 17 -6 17 -102 -8z"/>
<path d="M8248 21978 c-69 -18 -78 -23 -78 -44 0 -12 3 -25 8 -28 4 -2 47 5
95 17 65 16 86 25 82 35 -3 7 -5 20 -5 28 0 17 -6 17 -102 -8z"/>
<path d="M16752 21907 c-35 -98 -72 -293 -79 -407 -10 -195 23 -285 190 -506
58 -77 119 -167 136 -201 35 -68 54 -152 44 -192 -3 -14 -46 -68 -95 -120 -84
-91 -103 -121 -75 -121 7 0 58 42 112 92 l98 93 56 -2 c97 -2 178 -45 386
-203 186 -142 287 -177 475 -167 167 10 479 84 463 110 -3 5 -74 54 -157 109
-173 113 -399 230 -500 258 -114 32 -260 43 -382 30 -98 -10 -251 -47 -296
-71 -25 -14 -33 -6 -19 19 24 45 61 198 71 296 13 122 2 268 -30 382 -28 102
-146 329 -259 501 -55 83 -104 154 -109 157 -5 3 -18 -23 -30 -57z"/>
<path d="M1283 21906 c-73 -17 -83 -22 -83 -42 0 -13 4 -25 9 -29 6 -3 48 4
94 16 79 20 84 22 79 45 -2 13 -7 26 -11 27 -3 2 -43 -5 -88 -17z"/>
<path d="M2953 21906 c-73 -17 -83 -22 -83 -42 0 -13 4 -25 9 -29 6 -3 48 4
94 16 79 20 84 22 79 45 -2 13 -7 26 -11 27 -3 2 -43 -5 -88 -17z"/>
<path d="M4623 21906 c-73 -17 -83 -22 -83 -42 0 -13 4 -25 9 -29 6 -3 48 4
96 16 78 20 85 23 79 43 -3 11 -9 24 -13 27 -3 3 -43 -3 -88 -15z"/>
<path d="M6293 21906 c-73 -17 -83 -22 -83 -42 0 -13 4 -25 9 -29 6 -3 48 4
96 16 78 20 85 23 79 43 -3 11 -9 24 -13 27 -3 3 -43 -3 -88 -15z"/>
<path d="M7963 21907 c-73 -18 -83 -23 -83 -43 0 -13 4 -25 9 -29 6 -3 49 4
96 16 66 17 85 25 81 36 -4 8 -6 21 -6 29 0 17 6 17 -97 -9z"/>
<path d="M801 21463 c-33 -126 -34 -135 -20 -144 30 -20 43 -4 65 83 l21 86
-21 6 c-33 9 -35 8 -45 -31z"/>
<path d="M2471 21463 c-33 -126 -34 -135 -20 -144 35 -22 45 -10 66 78 12 49
21 89 20 90 -1 1 -14 4 -29 8 -25 6 -28 4 -37 -32z"/>
<path d="M4141 21463 c-33 -126 -34 -135 -20 -144 35 -22 45 -10 66 78 12 49
21 89 20 90 -1 1 -14 4 -29 8 -25 6 -28 4 -37 -32z"/>
<path d="M5811 21463 c-33 -126 -34 -135 -20 -144 35 -22 45 -10 66 78 12 49
21 89 20 90 -1 1 -14 4 -29 8 -25 6 -28 4 -37 -32z"/>
<path d="M7471 21414 c-18 -70 -19 -89 -9 -95 34 -22 44 -9 65 78 12 49 21 89
20 90 -1 1 -14 4 -28 8 -26 6 -27 5 -48 -81z"/>
<path d="M12410 21244 c-11 -31 -34 -124 -51 -207 -27 -134 -30 -167 -27 -277
6 -178 28 -224 222 -480 101 -133 139 -213 144 -302 l4 -68 -64 -62 c-83 -82
-132 -145 -118 -153 14 -9 71 34 147 112 73 75 99 83 194 59 81 -21 122 -46
294 -174 214 -161 323 -202 505 -189 153 11 460 83 460 108 0 16 -303 209
-431 274 -69 35 -159 75 -200 89 -197 65 -471 56 -678 -23 -28 -10 -51 -17
-51 -14 0 3 11 36 25 74 44 123 58 227 52 394 -4 111 -11 169 -26 224 -41 141
-161 367 -308 579 -35 50 -66 92 -68 92 -2 0 -13 -25 -25 -56z"/>
<path d="M735 21198 c-2 -7 -13 -48 -23 -90 l-20 -76 26 -7 c31 -8 34 -3 56
91 15 64 16 78 5 85 -20 12 -39 11 -44 -3z"/>
<path d="M2405 21198 c-2 -7 -13 -48 -23 -90 l-20 -76 25 -7 c13 -3 27 -3 32
-1 4 3 16 42 26 86 16 70 17 83 4 91 -20 12 -39 11 -44 -3z"/>
<path d="M4077 21203 c-3 -5 -13 -43 -23 -86 -16 -68 -16 -80 -3 -88 31 -20
43 -4 63 79 17 72 18 84 6 92 -18 12 -37 13 -43 3z"/>
<path d="M5741 21173 c-33 -126 -34 -135 -20 -144 31 -20 43 -4 63 79 17 72
18 84 6 92 -27 17 -39 10 -49 -27z"/>
<path d="M7411 21173 c-33 -126 -34 -135 -20 -144 30 -20 43 -4 65 83 l21 86
-21 6 c-33 9 -35 8 -45 -31z"/>
<path d="M15932 21113 c-42 -82 -93 -347 -94 -488 -1 -184 25 -247 200 -480
124 -165 162 -240 170 -331 l5 -66 -70 -71 c-90 -93 -125 -136 -117 -148 9
-15 38 6 134 98 l90 86 65 -5 c90 -8 165 -46 330 -170 235 -177 296 -202 485
-200 164 2 491 72 494 107 1 13 -248 178 -375 247 -207 113 -320 147 -509 155
-156 6 -269 -10 -396 -55 l-80 -28 28 80 c45 127 61 240 55 396 -8 191 -42
304 -158 514 -60 109 -222 361 -239 371 -5 3 -13 -2 -18 -12z"/>
<path d="M643 20833 c-12 -49 -21 -89 -20 -90 1 -1 14 -4 28 -8 26 -6 27 -5
48 81 18 70 19 89 9 95 -34 22 -44 9 -65 -78z"/>
<path d="M2315 20843 c-10 -43 -20 -83 -22 -89 -6 -15 48 -29 57 -14 3 6 15
45 24 86 15 64 16 78 5 85 -34 22 -45 10 -64 -68z"/>
<path d="M3985 20843 c-10 -43 -20 -83 -22 -89 -6 -15 48 -29 57 -14 3 6 15
45 24 86 15 64 16 78 5 85 -34 22 -45 10 -64 -68z"/>
<path d="M5675 20908 c-2 -7 -13 -48 -23 -90 l-20 -76 26 -7 c31 -8 34 -3 56
91 15 64 16 78 5 85 -20 12 -39 11 -44 -3z"/>
<path d="M7345 20908 c-2 -7 -13 -48 -23 -90 l-20 -76 26 -7 c31 -8 34 -3 56
91 15 64 16 78 5 85 -20 12 -39 11 -44 -3z"/>
<path d="M576 20563 c-9 -38 -21 -74 -25 -81 -4 -7 -41 -22 -80 -32 -40 -10
-74 -20 -77 -22 -2 -2 0 -14 3 -27 5 -20 10 -22 42 -17 20 3 46 9 57 12 21 6
21 4 16 -89 -4 -78 -1 -107 16 -164 42 -136 120 -213 216 -213 26 0 57 5 68
11 14 8 23 8 31 0 6 -6 20 -11 32 -11 17 0 24 11 38 68 10 37 21 73 26 80 4 7
41 22 80 32 40 10 74 20 77 22 2 2 0 14 -3 27 -5 20 -10 22 -42 17 -20 -3 -46
-9 -57 -12 -21 -6 -22 -4 -17 78 9 146 -32 265 -116 341 -48 43 -74 51 -138
43 -66 -8 -74 -8 -104 -1 -26 7 -27 5 -43 -62z"/>
<path d="M2243 20553 c-21 -85 -16 -81 -141 -113 -38 -10 -42 -14 -36 -33 4
-12 10 -23 15 -25 4 -2 1 -19 -7 -37 -47 -112 32 -227 191 -277 71 -22 191
-30 247 -15 l26 7 -14 -55 c-17 -63 -13 -75 21 -75 21 0 25 8 41 75 17 73 18
75 58 90 23 8 60 19 84 25 38 10 42 14 36 33 -4 12 -10 23 -14 25 -4 1 -1 19
6 40 18 51 17 80 -5 127 -25 53 -74 98 -141 129 -60 27 -180 49 -229 41 -17
-3 -44 -7 -60 -10 l-29 -4 15 56 c12 46 12 57 1 64 -34 22 -46 10 -65 -68z"/>
<path d="M3916 20563 c-9 -38 -21 -74 -25 -81 -4 -7 -41 -22 -80 -32 -40 -10
-74 -20 -77 -22 -2 -2 0 -14 3 -27 5 -21 10 -23 47 -18 23 3 48 9 56 12 13 4
15 -13 15 -107 0 -83 5 -127 18 -164 42 -122 121 -194 211 -194 26 0 57 5 68
11 14 8 23 8 31 0 22 -22 54 -13 61 17 4 15 13 50 21 78 l15 52 68 16 c85 21
93 26 85 55 -5 20 -10 22 -42 17 -20 -3 -45 -8 -56 -12 -19 -5 -20 0 -20 113
0 104 -3 125 -26 180 -31 74 -61 112 -114 147 -35 24 -47 27 -100 22 -88 -8
-88 -8 -116 -1 -26 7 -27 5 -43 -62z"/>
<path d="M5585 20553 c-22 -85 -17 -81 -143 -113 -38 -10 -42 -14 -36 -33 4
-12 11 -25 16 -28 4 -3 1 -23 -8 -44 -42 -102 37 -218 181 -264 81 -25 169
-34 230 -22 27 5 51 8 52 7 1 -1 -4 -26 -12 -56 -15 -57 -10 -70 27 -70 12 0
21 19 34 74 19 83 16 80 127 111 53 14 57 18 51 38 -4 12 -10 23 -15 25 -4 2
-1 19 7 37 41 99 -13 197 -141 256 -63 30 -183 52 -234 44 -17 -3 -44 -7 -60
-10 l-29 -4 15 56 c12 46 12 57 1 64 -32 21 -44 9 -63 -68z"/>
<path d="M7257 20563 c-10 -37 -21 -74 -26 -81 -4 -7 -41 -22 -80 -32 -40 -10
-74 -20 -77 -22 -2 -2 0 -14 3 -27 5 -21 10 -23 47 -18 23 3 48 9 56 12 13 4
15 -14 15 -112 0 -104 3 -125 26 -180 48 -114 117 -173 203 -173 92 0 170 70
213 194 25 71 25 241 0 312 -26 76 -73 141 -123 170 -38 22 -52 25 -101 20
-82 -8 -85 -8 -113 -1 -24 6 -26 3 -43 -62z"/>
<path d="M11571 20398 c-30 -91 -71 -299 -78 -398 -12 -179 27 -290 174 -485
160 -212 197 -285 198 -385 0 -56 0 -57 -65 -121 -81 -80 -124 -135 -115 -149
8 -14 71 35 153 118 l62 64 68 -4 c94 -5 167 -42 346 -177 157 -118 239 -163
326 -182 80 -17 283 -5 420 25 128 27 233 63 225 76 -9 14 -254 174 -353 230
-108 61 -245 122 -328 145 -36 10 -117 19 -209 22 -167 6 -271 -8 -394 -52
-38 -14 -71 -25 -74 -25 -3 0 4 23 14 51 79 208 88 480 23 679 -14 41 -56 135
-94 208 -71 136 -253 422 -269 422 -5 0 -19 -28 -30 -62z"/>
<path d="M178 20378 c-76 -20 -78 -21 -72 -47 4 -14 7 -27 8 -28 1 -1 41 8 89
20 83 20 88 23 85 47 -4 32 -16 33 -110 8z"/>
<path d="M1848 20378 c-76 -20 -78 -21 -72 -47 4 -14 7 -27 8 -28 1 -1 41 8
89 20 83 20 88 23 85 47 -4 32 -16 33 -110 8z"/>
<path d="M3518 20378 c-76 -20 -78 -21 -72 -47 4 -14 7 -27 8 -28 1 -1 41 8
89 20 83 20 88 23 85 47 -4 32 -16 33 -110 8z"/>
<path d="M5187 20378 c-71 -19 -77 -22 -71 -42 3 -11 9 -24 13 -27 3 -4 43 2
89 14 79 19 83 22 80 46 -4 33 -16 34 -111 9z"/>
<path d="M6859 20378 c-75 -19 -77 -20 -69 -46 8 -30 9 -30 113 -5 63 16 68
19 65 42 -4 33 -16 34 -109 9z"/>
<path d="M1565 20307 c-75 -21 -80 -24 -77 -47 2 -14 5 -26 7 -28 1 -2 42 7
89 19 83 21 87 23 84 47 -2 14 -7 27 -13 28 -5 1 -46 -7 -90 -19z"/>
<path d="M3235 20307 c-75 -21 -80 -24 -77 -47 2 -14 5 -26 7 -28 1 -2 42 7
89 19 83 21 87 23 84 47 -2 14 -7 27 -13 28 -5 1 -46 -7 -90 -19z"/>
<path d="M4908 20308 c-69 -18 -78 -23 -78 -44 0 -12 4 -25 9 -29 5 -3 47 4
94 16 82 21 84 22 78 47 -4 14 -11 27 -17 28 -5 1 -44 -7 -86 -18z"/>
<path d="M6578 20308 c-69 -18 -78 -23 -78 -44 0 -12 4 -25 9 -29 5 -3 48 5
96 17 64 16 84 25 80 36 -3 7 -5 20 -5 28 0 17 -6 17 -102 -8z"/>
<path d="M15077 20222 c-59 -178 -90 -438 -68 -557 17 -92 68 -187 186 -345
131 -176 175 -262 178 -347 l1 -60 -92 -98 c-51 -54 -92 -105 -92 -112 0 -29
32 -9 125 79 l97 92 61 -1 c85 -3 171 -47 347 -178 228 -170 315 -202 510
-191 120 6 320 45 411 79 l62 23 -49 36 c-181 133 -442 278 -590 327 -121 41
-277 56 -414 41 -96 -11 -248 -48 -292 -71 -25 -14 -33 -6 -19 19 23 44 60
196 71 292 24 216 -15 398 -136 629 -59 114 -242 402 -262 415 -5 3 -21 -29
-35 -72z"/>
<path d="M1283 20236 c-73 -17 -83 -22 -83 -42 0 -13 4 -25 9 -29 6 -3 48 4
94 16 79 20 84 22 79 45 -2 13 -7 26 -11 27 -3 2 -43 -5 -88 -17z"/>
<path d="M2953 20236 c-73 -17 -83 -22 -83 -42 0 -13 4 -25 9 -29 6 -3 48 4
94 16 79 20 84 22 79 45 -2 13 -7 26 -11 27 -3 2 -43 -5 -88 -17z"/>
<path d="M4623 20237 c-74 -19 -83 -23 -83 -44 0 -13 6 -26 14 -29 12 -4 163
30 173 40 4 3 -15 57 -19 55 -2 -1 -40 -11 -85 -22z"/>
<path d="M6293 20237 c-74 -19 -83 -23 -83 -44 0 -13 6 -26 14 -29 12 -4 163
30 173 40 4 3 -15 57 -19 55 -2 -1 -40 -11 -85 -22z"/>
<path d="M801 19793 c-33 -126 -34 -135 -20 -144 30 -20 43 -4 65 83 l21 86
-21 6 c-33 9 -35 8 -45 -31z"/>
<path d="M2471 19793 c-33 -126 -34 -135 -20 -144 35 -22 45 -10 66 78 12 49
21 89 20 90 -1 1 -14 4 -29 8 -25 6 -28 4 -37 -32z"/>
<path d="M4141 19793 c-33 -126 -34 -135 -20 -144 35 -22 45 -10 66 78 12 49
21 89 20 90 -1 1 -14 4 -29 8 -25 6 -28 4 -37 -32z"/>
<path d="M5801 19744 c-18 -70 -19 -89 -9 -95 34 -22 44 -9 65 78 12 49 21 89
20 90 -1 1 -14 4 -28 8 -26 6 -27 5 -48 -81z"/>
<path d="M10740 19573 c-60 -160 -97 -471 -71 -593 19 -87 64 -169 182 -326
135 -179 172 -252 177 -346 l4 -68 -64 -62 c-83 -82 -132 -145 -118 -153 14
-9 71 34 147 112 69 71 95 81 173 64 80 -17 144 -54 306 -173 82 -61 180 -126
217 -144 88 -42 186 -58 302 -50 152 11 455 82 455 107 0 5 -69 54 -152 109
-169 112 -421 242 -513 265 -207 52 -451 40 -644 -34 -28 -10 -51 -17 -51 -14
0 3 11 36 25 74 44 123 58 227 52 394 -3 92 -12 173 -22 209 -23 83 -84 220
-145 328 -55 97 -217 345 -231 353 -4 3 -17 -21 -29 -52z"/>
<path d="M735 19528 c-2 -7 -13 -48 -23 -90 l-20 -76 26 -7 c31 -8 34 -3 56
91 15 64 16 78 5 85 -20 12 -39 11 -44 -3z"/>
<path d="M2405 19528 c-2 -7 -13 -48 -23 -90 l-20 -76 25 -7 c13 -3 27 -3 32
-1 4 3 16 42 26 86 16 70 17 83 4 91 -20 12 -39 11 -44 -3z"/>
<path d="M4077 19533 c-3 -5 -13 -43 -23 -86 -16 -68 -16 -80 -3 -88 31 -20
43 -4 63 79 17 72 18 84 6 92 -18 12 -37 13 -43 3z"/>
<path d="M5741 19503 c-33 -126 -34 -135 -20 -144 31 -20 43 -4 63 79 17 72
18 84 6 92 -27 17 -39 10 -49 -27z"/>
<path d="M14262 19443 c-44 -85 -94 -349 -94 -493 0 -184 27 -249 205 -482
116 -153 158 -237 165 -328 l4 -67 -47 -44 c-72 -67 -145 -158 -145 -180 0
-23 8 -17 152 120 l77 74 64 -5 c89 -7 174 -51 325 -165 233 -178 298 -205
482 -205 85 0 149 7 245 26 133 27 251 61 260 75 6 11 -134 109 -298 206 -238
143 -379 192 -577 202 -144 7 -266 -9 -390 -50 l-95 -32 32 95 c42 125 57 245
50 395 -9 185 -57 329 -183 543 -61 104 -211 332 -219 332 -2 0 -8 -8 -13 -17z"/>
<path d="M643 19163 c-12 -49 -21 -89 -20 -90 1 -1 14 -4 28 -8 26 -6 27 -5
48 81 18 70 19 89 9 95 -34 22 -44 9 -65 -78z"/>
<path d="M2315 19173 c-10 -43 -20 -83 -22 -89 -6 -15 48 -29 57 -14 3 6 15
45 24 86 15 64 16 78 5 85 -34 22 -45 10 -64 -68z"/>
<path d="M3985 19173 c-10 -43 -20 -83 -22 -89 -6 -15 48 -29 57 -14 3 6 15
45 24 86 15 64 16 78 5 85 -34 22 -45 10 -64 -68z"/>
<path d="M5675 19238 c-2 -7 -13 -48 -23 -90 l-20 -76 26 -7 c31 -8 34 -3 56
91 15 64 16 78 5 85 -20 12 -39 11 -44 -3z"/>
<path d="M573 18883 l-19 -78 -79 -23 c-43 -12 -80 -24 -82 -25 -2 -2 2 -17 7
-34 8 -20 8 -38 0 -57 -40 -105 39 -216 190 -268 52 -18 86 -22 168 -22 l104
1 -8 -36 c-13 -66 -11 -76 17 -79 24 -3 26 1 43 72 19 82 16 80 128 110 50 14
56 18 50 39 -3 12 -9 24 -13 27 -5 3 -1 26 8 52 15 39 15 52 4 88 -38 127
-220 212 -406 190 -33 -4 -61 -6 -62 -6 -1 1 4 26 12 56 15 57 10 70 -26 70
-13 0 -22 -20 -36 -77z"/>
<path d="M2246 18893 c-9 -38 -21 -74 -25 -81 -4 -7 -41 -22 -80 -32 -40 -10
-74 -20 -77 -22 -2 -2 0 -14 3 -27 5 -21 10 -23 47 -18 23 3 48 9 56 12 13 4
15 -13 15 -107 0 -83 5 -127 18 -164 42 -122 121 -194 211 -194 26 0 57 5 68
11 14 8 23 8 31 0 22 -22 54 -13 61 17 4 15 13 50 21 78 l15 52 68 16 c85 21
93 26 85 55 -5 20 -10 22 -42 17 -20 -3 -45 -8 -56 -12 -19 -5 -20 0 -20 113
-1 141 -21 204 -90 281 -55 62 -88 76 -157 68 -74 -8 -80 -8 -109 -1 -26 7
-27 5 -43 -62z"/>
<path d="M3913 18883 l-19 -78 -79 -23 c-43 -12 -80 -24 -82 -25 -2 -2 2 -17
7 -34 8 -20 8 -38 0 -57 -27 -71 5 -158 79 -212 84 -61 230 -94 337 -76 l51 9
-14 -54 c-16 -61 -12 -73 22 -73 21 0 25 8 41 75 19 81 17 79 114 105 59 15
65 19 62 41 -1 13 -7 25 -11 27 -5 2 -2 20 6 42 51 128 -80 265 -276 289 -39
5 -79 8 -89 6 -9 -2 -36 -6 -58 -8 l-42 -5 15 56 c12 45 12 56 1 63 -34 22
-46 10 -65 -68z"/>
<path d="M5587 18893 c-10 -37 -21 -74 -26 -81 -4 -7 -41 -22 -80 -32 -40 -10
-75 -20 -77 -23 -3 -2 0 -16 5 -30 l10 -25 53 14 c29 7 53 14 53 14 0 0 0 -51
0 -112 0 -83 5 -127 18 -164 43 -123 121 -194 212 -194 91 0 169 71 212 194
13 37 18 80 18 161 -1 95 -4 118 -26 172 -31 74 -61 112 -114 147 -35 24 -47
27 -100 22 -88 -8 -88 -8 -115 -1 -24 6 -26 3 -43 -62z"/>
<path d="M9901 18728 c-31 -94 -70 -291 -77 -393 -14 -191 27 -299 197 -525
127 -168 172 -257 173 -344 l1 -62 -65 -65 c-81 -80 -124 -135 -115 -149 8
-14 71 35 153 118 l63 65 69 -5 c94 -7 164 -43 331 -169 240 -181 303 -205
514 -196 78 3 170 13 230 26 106 23 225 59 238 71 19 17 -364 256 -523 326
-135 59 -206 75 -357 81 -156 7 -263 -7 -386 -48 -49 -16 -90 -29 -92 -29 -2
0 6 23 16 51 74 193 86 440 34 644 -19 72 -104 252 -176 373 -69 114 -190 292
-200 292 -4 0 -17 -28 -28 -62z"/>
<path d="M178 18708 c-76 -20 -78 -21 -72 -47 4 -14 8 -27 9 -28 1 -2 41 7 89
19 83 20 87 23 84 47 -4 33 -16 34 -110 9z"/>
<path d="M1848 18708 c-76 -20 -78 -21 -72 -47 4 -14 8 -27 9 -28 1 -2 41 7
89 19 83 20 87 23 84 47 -4 33 -16 34 -110 9z"/>
<path d="M3518 18708 c-76 -20 -78 -21 -72 -47 4 -14 8 -27 9 -28 1 -2 41 7
89 19 83 20 87 23 84 47 -4 33 -16 34 -110 9z"/>
<path d="M5187 18708 c-71 -19 -77 -22 -71 -42 10 -35 16 -36 102 -14 79 20
83 22 80 47 -4 33 -16 34 -111 9z"/>
<path d="M1565 18637 c-75 -21 -80 -24 -77 -47 2 -14 6 -27 8 -29 3 -3 62 10
157 36 13 3 17 12 15 31 -2 14 -7 27 -13 28 -5 1 -46 -7 -90 -19z"/>
<path d="M3235 18637 c-75 -21 -80 -24 -77 -47 2 -14 6 -27 7 -29 2 -2 44 7
93 19 88 22 89 23 83 48 -4 14 -11 27 -17 28 -5 1 -45 -7 -89 -19z"/>
<path d="M4908 18638 c-69 -18 -78 -23 -78 -44 0 -12 4 -25 9 -29 6 -3 48 4
94 16 83 20 85 21 78 47 -4 14 -11 27 -17 28 -5 1 -44 -7 -86 -18z"/>
<path d="M13407 18553 c-60 -182 -92 -450 -67 -566 18 -87 78 -197 190 -346
130 -172 162 -234 168 -328 l5 -72 -92 -97 c-50 -54 -91 -104 -91 -111 0 -29
32 -9 124 78 l97 92 72 -5 c94 -6 156 -38 328 -168 149 -112 259 -172 346
-191 80 -16 261 -5 402 26 106 23 241 62 241 70 0 7 -156 113 -261 178 -314
194 -523 254 -788 227 -95 -10 -248 -47 -293 -71 -25 -14 -33 -6 -19 19 24 45
61 199 71 297 27 262 -34 470 -227 784 -62 101 -171 261 -177 261 -2 0 -15
-35 -29 -77z"/>
<path d="M1283 18566 c-75 -18 -83 -22 -83 -43 0 -32 20 -37 82 -20 29 8 65
17 79 21 22 5 25 10 21 31 -2 14 -7 27 -11 28 -3 2 -43 -5 -88 -17z"/>
<path d="M2953 18566 c-75 -18 -83 -22 -83 -43 0 -32 20 -37 82 -20 29 8 65
17 79 21 22 5 25 10 21 31 -2 14 -7 27 -11 28 -3 2 -43 -5 -88 -17z"/>
<path d="M4623 18566 c-75 -18 -83 -22 -83 -43 0 -31 18 -37 69 -24 23 6 59
16 82 22 35 9 39 13 33 32 -3 12 -9 25 -13 28 -3 3 -43 -3 -88 -15z"/>
<path d="M801 18123 c-33 -126 -34 -135 -20 -144 31 -20 43 -4 63 78 11 46 18
84 15 87 -2 2 -14 7 -26 10 -19 6 -23 2 -32 -31z"/>
<path d="M2471 18123 c-33 -126 -34 -135 -20 -144 35 -22 45 -10 66 78 12 49
21 88 20 89 -1 1 -14 4 -29 8 -25 6 -28 3 -37 -31z"/>
<path d="M4141 18123 c-33 -126 -34 -135 -20 -144 35 -22 45 -10 66 78 12 49
21 88 20 89 -1 1 -14 4 -29 8 -25 6 -28 3 -37 -31z"/>
<path d="M9070 17903 c-60 -160 -97 -471 -71 -593 19 -87 66 -172 182 -327
136 -181 170 -248 177 -343 l5 -69 -65 -63 c-83 -82 -132 -145 -118 -153 14
-9 71 35 149 114 l64 66 63 -1 c87 -1 176 -46 344 -173 238 -180 350 -218 567
-193 167 19 413 80 413 102 0 9 -123 94 -251 173 -229 141 -391 207 -561 228
-151 18 -341 -3 -485 -55 -34 -13 -63 -21 -63 -18 0 2 11 35 25 73 43 121 58
228 52 389 -3 91 -11 169 -22 210 -24 90 -90 236 -159 355 -57 96 -214 335
-221 335 -2 0 -13 -26 -25 -57z"/>
<path d="M735 17858 c-2 -7 -13 -48 -23 -90 l-20 -76 26 -7 c31 -8 34 -3 56
91 15 64 16 78 5 85 -20 12 -39 11 -44 -3z"/>
<path d="M2405 17858 c-2 -7 -13 -48 -23 -90 l-20 -76 25 -7 c13 -3 27 -3 32
-1 4 3 16 42 26 86 16 70 17 83 4 91 -20 12 -39 11 -44 -3z"/>
<path d="M4075 17858 c-2 -7 -13 -48 -23 -90 l-20 -76 25 -7 c13 -3 27 -3 32
-1 4 3 16 42 26 86 16 70 17 83 4 91 -20 12 -39 11 -44 -3z"/>
<path d="M12595 17780 c-41 -66 -97 -350 -98 -495 -1 -182 29 -254 202 -484
121 -160 162 -239 169 -328 l5 -65 -70 -71 c-90 -93 -125 -136 -117 -148 9
-15 38 6 134 98 l91 86 65 -6 c90 -9 166 -48 325 -168 230 -173 303 -203 484
-202 152 1 479 69 500 103 6 10 -195 147 -336 228 -219 126 -353 170 -545 179
-141 7 -283 -13 -405 -56 l-76 -27 27 75 c44 119 64 263 57 405 -9 192 -53
326 -179 545 -57 99 -215 341 -223 341 -2 0 -7 -4 -10 -10z"/>
<path d="M643 17493 c-12 -49 -21 -89 -20 -90 1 -1 14 -4 28 -8 26 -6 27 -5
48 81 18 70 19 89 9 95 -34 22 -44 9 -65 -78z"/>
<path d="M2315 17503 c-10 -43 -20 -83 -22 -89 -6 -15 48 -29 57 -14 3 6 15
45 24 86 15 64 16 78 5 85 -34 22 -45 10 -64 -68z"/>
<path d="M3985 17503 c-10 -43 -20 -83 -22 -89 -6 -15 48 -29 57 -14 3 6 15
45 24 86 15 64 16 78 5 85 -34 22 -45 10 -64 -68z"/>
<path d="M586 17263 c-29 -120 -35 -132 -74 -142 -132 -34 -123 -29 -116 -59
4 -15 8 -28 8 -29 1 -1 26 4 56 12 30 8 56 15 56 15 1 0 -1 -40 -4 -89 -7
-127 19 -221 85 -309 46 -62 154 -93 213 -62 16 9 25 9 33 1 22 -22 54 -13 61
17 4 15 13 50 21 78 l15 52 72 17 c90 22 86 19 80 51 -4 24 -8 26 -41 20 -20
-3 -46 -9 -58 -12 -21 -6 -21 -4 -16 69 11 141 -32 272 -111 345 -48 44 -93
58 -153 48 -50 -8 -63 -9 -94 -1 -23 6 -27 3 -33 -22z"/>
<path d="M2243 17213 l-19 -78 -79 -23 c-43 -12 -80 -24 -82 -26 -2 -2 1 -16
7 -31 8 -20 7 -38 -1 -63 -25 -75 10 -160 88 -213 78 -54 145 -72 266 -72
l109 -1 -8 -35 c-13 -66 -11 -76 18 -79 25 -3 27 0 44 72 19 82 16 80 114 106
59 15 65 19 62 41 -1 13 -6 25 -11 27 -5 1 -2 19 5 40 17 49 17 75 -2 120 -30
73 -111 134 -212 162 -45 12 -207 15 -234 5 -15 -6 -15 -2 -2 51 13 47 13 58
2 65 -34 22 -46 10 -65 -68z"/>
<path d="M3916 17223 c-9 -38 -21 -74 -25 -81 -4 -7 -41 -22 -80 -32 -40 -10
-75 -20 -77 -23 -3 -2 0 -16 5 -30 l10 -25 53 14 c29 7 53 14 53 14 0 0 0 -51
0 -112 0 -126 15 -184 67 -262 108 -164 301 -114 375 98 13 38 18 80 17 161 0
133 -22 198 -90 274 -52 57 -95 75 -162 67 -65 -8 -73 -8 -103 -1 -26 7 -27 5
-43 -62z"/>
<path d="M8231 17058 c-31 -94 -70 -291 -77 -393 -14 -191 27 -300 197 -525
127 -168 172 -257 173 -344 l1 -62 -65 -65 c-81 -80 -124 -135 -115 -149 8
-14 71 35 153 118 l63 65 67 -5 c93 -7 167 -44 332 -168 243 -183 301 -205
509 -197 85 3 174 13 236 26 107 24 225 59 238 71 11 10 -219 164 -363 245
-207 116 -328 154 -516 162 -156 7 -263 -6 -387 -48 -49 -16 -89 -29 -91 -29
-1 0 11 38 26 85 92 274 71 549 -60 810 -78 156 -273 465 -293 465 -4 0 -17
-28 -28 -62z"/>
<path d="M178 17038 c-76 -20 -78 -21 -72 -47 4 -14 8 -27 9 -29 1 -2 42 7 89
19 83 21 87 23 84 48 -4 33 -16 34 -110 9z"/>
<path d="M1848 17038 c-76 -20 -78 -21 -72 -47 4 -14 8 -27 9 -29 1 -2 42 7
89 19 83 21 87 23 84 48 -4 33 -16 34 -110 9z"/>
<path d="M3518 17038 c-76 -20 -78 -21 -72 -47 4 -14 8 -27 9 -29 1 -2 42 7
89 19 83 21 87 23 84 48 -4 33 -16 34 -110 9z"/>
<path d="M1565 16967 c-75 -21 -80 -24 -77 -47 5 -34 5 -34 59 -21 128 32 124
30 121 58 -2 15 -7 28 -13 29 -5 1 -46 -7 -90 -19z"/>
<path d="M3235 16967 c-75 -21 -80 -24 -77 -47 2 -14 6 -27 8 -29 2 -2 43 6
92 19 88 21 90 22 83 48 -4 14 -11 27 -17 28 -5 1 -45 -7 -89 -19z"/>
<path d="M11740 16896 c-62 -186 -95 -460 -70 -579 18 -88 78 -198 190 -346
130 -173 162 -234 168 -328 l5 -72 -92 -97 c-50 -53 -91 -103 -91 -110 0 -30
32 -10 124 77 l97 92 72 -5 c94 -6 155 -38 328 -168 149 -112 259 -172 346
-190 119 -25 378 6 566 66 42 14 77 27 77 29 0 8 -187 133 -285 192 -305 183
-498 237 -759 213 -97 -10 -252 -46 -298 -71 -25 -14 -33 -6 -19 19 25 46 61
201 71 298 24 261 -30 454 -213 759 -59 98 -184 285 -192 285 -2 0 -13 -29
-25 -64z"/>
<path d="M1283 16896 c-79 -19 -83 -21 -83 -48 0 -31 11 -34 70 -19 19 6 53
15 76 20 37 10 41 14 36 36 -2 14 -7 27 -11 28 -3 2 -43 -5 -88 -17z"/>
<path d="M2953 16896 c-75 -18 -83 -22 -83 -43 0 -31 18 -37 69 -24 23 6 58
16 80 21 34 9 38 13 33 35 -2 14 -7 27 -11 28 -3 2 -43 -5 -88 -17z"/>
<path d="M801 16453 c-5 -21 -15 -58 -21 -82 -14 -53 -8 -71 23 -71 21 0 25 9
44 86 l21 85 -25 10 c-33 12 -31 14 -42 -28z"/>
<path d="M2471 16453 c-5 -21 -15 -58 -21 -82 -14 -53 -8 -71 23 -71 21 0 25
9 44 86 l21 85 -25 10 c-33 12 -31 14 -42 -28z"/>
<path d="M7417 16283 c-2 -5 -14 -37 -25 -73 -41 -129 -64 -263 -69 -401 -8
-208 14 -266 197 -509 124 -165 161 -239 168 -332 l5 -67 -65 -63 c-83 -82
-132 -145 -118 -153 14 -9 71 35 149 114 l64 66 63 -1 c89 -2 176 -46 344
-173 262 -198 375 -229 655 -181 174 30 325 71 325 90 0 19 -310 215 -458 289
-269 135 -567 155 -839 57 -34 -13 -63 -22 -63 -20 0 1 13 42 29 91 42 124 55
231 48 387 -8 188 -46 309 -162 516 -55 99 -231 370 -240 370 -2 0 -6 -3 -8
-7z"/>
<path d="M735 16188 c-2 -7 -13 -48 -23 -90 l-20 -76 25 -7 c13 -3 27 -3 32
-1 9 6 46 164 40 170 -14 13 -50 16 -54 4z"/>
<path d="M2405 16188 c-2 -7 -13 -48 -23 -90 l-20 -76 25 -7 c13 -3 27 -3 32
-1 9 6 46 164 40 170 -14 13 -50 16 -54 4z"/>
<path d="M10925 16110 c-28 -46 -85 -298 -100 -441 -9 -97 10 -221 49 -304 18
-38 81 -135 140 -214 59 -80 118 -163 131 -185 30 -53 55 -139 55 -191 0 -35
-6 -47 -46 -85 -70 -68 -145 -160 -139 -171 10 -15 38 6 133 96 101 96 116
100 223 69 72 -21 110 -44 279 -169 221 -164 285 -189 465 -188 152 1 479 68
500 103 6 10 -242 177 -360 242 -218 119 -336 156 -525 165 -144 6 -265 -11
-396 -56 l-80 -27 27 80 c45 131 62 252 56 396 -9 189 -47 310 -166 525 -45
81 -228 365 -236 365 -2 0 -7 -4 -10 -10z"/>
<path d="M643 15823 c-12 -49 -21 -89 -20 -90 1 -1 14 -4 28 -8 26 -6 27 -5
48 81 18 70 19 89 9 95 -34 22 -44 9 -65 -78z"/>
<path d="M2315 15833 c-10 -43 -20 -83 -22 -89 -6 -15 48 -29 57 -14 3 6 15
45 24 86 15 64 16 78 5 85 -34 22 -45 10 -64 -68z"/>
<path d="M573 15543 l-19 -78 -79 -23 c-43 -12 -80 -23 -82 -25 -1 -2 1 -18 7
-35 6 -21 5 -43 -2 -63 -24 -69 14 -160 89 -212 75 -52 147 -71 266 -71 l109
1 -8 -36 c-13 -66 -11 -76 18 -79 25 -3 27 0 44 72 19 82 17 80 114 105 59 16
65 20 62 42 -2 13 -7 25 -12 27 -4 1 -1 19 6 40 18 51 17 80 -5 127 -25 54
-74 98 -146 132 -56 26 -69 28 -187 28 -71 0 -128 0 -128 0 0 0 7 25 15 55 15
57 10 70 -26 70 -13 0 -22 -20 -36 -77z"/>
<path d="M2256 15593 c-29 -120 -35 -132 -74 -142 -132 -34 -123 -29 -116 -59
4 -15 8 -28 8 -29 1 -2 111 25 111 27 0 0 0 -53 0 -117 1 -98 5 -128 23 -174
47 -118 121 -182 208 -182 86 0 170 78 211 197 13 38 18 80 17 161 0 133 -22
198 -90 274 -52 58 -96 76 -163 67 -57 -9 -69 -9 -102 -1 -23 6 -27 3 -33 -22z"/>
<path d="M6556 15372 c-58 -185 -89 -432 -67 -546 18 -96 69 -191 185 -346
134 -178 177 -264 179 -353 l2 -63 -65 -65 c-81 -80 -124 -135 -115 -149 8
-14 71 35 153 118 l63 65 67 -5 c93 -7 166 -44 332 -169 162 -121 215 -153
300 -179 94 -30 248 -28 415 4 124 25 251 60 268 76 10 9 -239 176 -368 247
-226 125 -357 163 -565 163 -144 0 -231 -16 -412 -76 -14 -5 -13 3 7 59 99
272 79 570 -56 839 -76 151 -271 457 -291 458 -4 0 -18 -35 -32 -78z"/>
<path d="M178 15368 c-76 -20 -78 -21 -72 -47 4 -14 8 -27 9 -29 1 -2 42 7 89
19 83 21 87 23 84 48 -4 33 -16 34 -110 9z"/>
<path d="M1853 15367 c-80 -19 -82 -21 -76 -46 3 -14 7 -27 8 -29 1 -2 42 7
89 19 83 21 87 23 84 47 -2 14 -7 26 -13 28 -5 1 -47 -7 -92 -19z"/>
<path d="M1565 15296 c-75 -20 -80 -23 -77 -46 2 -14 6 -27 8 -29 2 -2 43 6
92 19 88 21 90 22 83 48 -4 14 -11 26 -17 27 -5 1 -45 -7 -89 -19z"/>
<path d="M10067 15213 c-62 -188 -92 -441 -68 -565 19 -96 63 -176 183 -336
133 -177 171 -250 176 -344 l4 -68 -91 -96 c-87 -92 -107 -124 -77 -124 7 0
57 41 110 91 l96 91 68 -4 c94 -5 167 -43 344 -176 160 -120 240 -164 336
-183 124 -24 377 6 566 68 l79 26 -24 18 c-13 10 -73 52 -134 93 -202 136
-400 237 -531 271 -181 47 -448 33 -625 -34 -29 -11 -54 -19 -55 -18 -2 2 8
33 21 69 56 153 73 395 41 560 -32 164 -147 393 -329 653 -27 39 -53 74 -57
78 -4 5 -19 -27 -33 -70z"/>
<path d="M1280 15225 c-80 -20 -85 -23 -82 -46 2 -13 6 -26 8 -28 4 -4 79 11
146 29 30 9 35 14 30 35 -2 14 -7 27 -11 28 -3 2 -44 -7 -91 -18z"/>
<path d="M801 14783 c-5 -21 -15 -58 -21 -82 -14 -53 -8 -71 23 -71 21 0 25 9
44 86 l21 85 -25 10 c-33 12 -31 14 -42 -28z"/>
<path d="M5747 14613 c-15 -26 -50 -156 -72 -264 -32 -164 -35 -326 -5 -420
26 -85 59 -139 179 -299 127 -168 163 -240 169 -336 l4 -71 -41 -34 c-51 -40
-156 -167 -147 -176 12 -12 60 23 140 102 l81 80 62 -1 c88 -2 175 -46 353
-180 204 -153 301 -194 460 -194 138 0 511 80 510 109 -1 19 -313 217 -458
290 -268 135 -575 155 -839 56 -35 -13 -63 -22 -63 -20 0 3 12 40 26 82 37
111 53 211 54 338 0 213 -37 342 -163 570 -46 85 -234 375 -242 375 -2 0 -6
-3 -8 -7z"/>
<path d="M735 14518 c-2 -7 -13 -48 -24 -91 l-19 -77 23 -6 c13 -3 28 -3 33 0
9 6 48 164 41 170 -14 13 -50 16 -54 4z"/>
<path d="M9255 14440 c-17 -28 -47 -137 -69 -249 -65 -337 -40 -451 154 -706
148 -194 190 -279 190 -381 0 -38 -5 -48 -46 -86 -79 -73 -147 -159 -135 -171
12 -12 19 -6 147 116 64 59 76 67 111 67 99 0 186 -44 378 -190 250 -190 370
-218 685 -159 119 22 280 68 280 80 0 18 -316 216 -455 285 -203 101 -267 117
-470 118 -171 1 -255 -12 -382 -59 l-62 -24 24 62 c47 127 60 211 59 382 -1
203 -17 267 -118 470 -61 122 -266 455 -281 455 -2 0 -7 -4 -10 -10z"/>
<path d="M646 14163 c-10 -43 -21 -83 -23 -89 -6 -15 48 -29 57 -14 9 14 43
160 38 165 -1 2 -15 6 -29 10 -24 6 -26 4 -43 -72z"/>
<path d="M575 13882 c-9 -39 -22 -77 -28 -85 -7 -8 -45 -22 -84 -32 -71 -17
-73 -18 -67 -44 4 -14 8 -27 8 -28 1 -1 26 4 56 12 30 8 56 15 56 15 1 0 -1
-40 -4 -89 -6 -105 8 -172 51 -254 127 -242 391 -128 414 180 10 130 -26 249
-97 327 -49 53 -95 71 -159 62 -57 -9 -69 -9 -102 -1 -26 7 -27 5 -44 -63z"/>
<path d="M4886 13701 c-48 -150 -71 -295 -70 -436 1 -190 19 -233 200 -473 53
-70 109 -152 124 -182 33 -66 54 -157 44 -195 -4 -15 -41 -63 -83 -105 -79
-81 -121 -140 -100 -140 18 0 136 98 176 147 l37 45 71 -4 c95 -6 166 -42 336
-170 229 -172 294 -199 474 -199 150 0 466 63 508 101 14 13 -279 201 -438
281 -191 96 -277 120 -450 127 -146 5 -268 -12 -392 -53 -88 -30 -86 -30 -74
-6 24 44 61 198 72 297 23 217 -16 402 -132 624 -62 117 -256 420 -270 420 -5
0 -19 -35 -33 -79z"/>
<path d="M183 13697 c-80 -19 -82 -21 -76 -46 3 -14 7 -27 8 -29 1 -2 42 7 89
19 83 21 87 23 84 47 -2 14 -7 26 -13 28 -5 1 -47 -7 -92 -19z"/>
<path d="M8396 13543 c-61 -188 -91 -441 -67 -565 19 -96 61 -174 182 -336
137 -183 172 -251 177 -344 l4 -68 -91 -96 c-87 -92 -107 -124 -77 -124 7 0
57 41 110 91 l96 91 68 -4 c93 -5 163 -41 345 -177 159 -119 244 -165 334
-182 123 -23 381 8 566 67 42 14 77 27 77 29 0 8 -249 170 -358 233 -230 132
-365 172 -580 172 -143 0 -257 -17 -360 -55 -37 -13 -67 -23 -69 -22 -1 2 9
32 22 69 38 103 56 220 56 359 0 213 -42 352 -173 581 -63 109 -225 358 -233
358 -2 0 -15 -35 -29 -77z"/>
<path d="M4075 12938 c-89 -243 -121 -533 -76 -678 27 -86 59 -139 179 -299
128 -171 164 -241 170 -337 l4 -71 -41 -34 c-51 -40 -156 -167 -147 -176 12
-12 60 22 136 98 43 42 89 79 103 83 38 9 124 -10 192 -44 33 -16 126 -78 207
-139 167 -124 242 -164 343 -182 124 -21 397 13 561 70 32 12 60 21 61 21 32
0 -206 162 -379 257 -218 121 -340 155 -553 156 -151 0 -249 -16 -362 -58 -35
-13 -63 -22 -63 -20 0 3 11 37 24 77 44 131 59 239 54 388 -6 178 -30 262
-127 455 -64 127 -262 445 -277 445 -3 0 -7 -6 -9 -12z"/>
<path d="M7557 12693 c-33 -110 -63 -264 -72 -368 -16 -184 28 -303 196 -525
119 -157 168 -252 176 -339 l6 -60 -70 -73 c-82 -86 -123 -136 -123 -149 0
-24 34 -1 129 87 l104 97 59 -6 c85 -8 181 -58 338 -176 269 -203 387 -232
705 -170 116 23 275 69 275 80 0 8 -211 149 -316 213 -108 64 -287 145 -369
167 -65 17 -111 22 -240 23 -171 1 -255 -12 -382 -59 l-62 -24 24 62 c47 127
60 211 59 382 -1 129 -6 175 -23 240 -22 82 -103 261 -167 369 -64 105 -205
316 -213 316 -4 0 -20 -39 -34 -87z"/>
<path d="M3220 12046 c-33 -100 -71 -293 -77 -396 -12 -195 24 -291 193 -515
58 -77 118 -167 135 -200 33 -68 52 -154 42 -192 -3 -14 -40 -61 -82 -103 -77
-78 -110 -124 -98 -136 9 -9 69 38 150 118 65 65 71 68 116 68 95 0 180 -42
356 -175 217 -165 293 -197 470 -197 149 0 470 64 508 102 8 7 -174 133 -309
214 -109 64 -287 145 -369 167 -174 45 -420 35 -602 -26 -40 -14 -75 -25 -78
-25 -2 0 7 28 20 63 42 113 58 211 58 362 0 212 -35 335 -156 553 -65 119
-237 382 -248 382 -4 0 -17 -29 -29 -64z"/>
<path d="M6726 11873 c-61 -190 -92 -455 -67 -574 18 -85 73 -183 187 -334
132 -177 167 -245 172 -338 l4 -69 -69 -72 c-90 -92 -125 -135 -117 -147 9
-15 38 6 134 97 l90 86 68 -4 c92 -5 162 -40 337 -172 151 -114 249 -168 334
-187 76 -16 264 -6 391 20 96 20 260 68 260 76 0 2 -53 39 -117 83 -221 149
-430 258 -570 297 -36 10 -116 19 -213 22 -171 6 -276 -8 -398 -52 -36 -13
-67 -23 -69 -22 -1 2 9 33 22 69 44 122 58 227 52 398 -3 97 -12 177 -22 213
-39 140 -148 349 -297 570 -44 64 -81 117 -83 117 -2 0 -15 -35 -29 -77z"/>
<path d="M2404 11264 c-4 -10 -13 -34 -20 -52 -20 -50 -63 -262 -73 -361 -21
-204 19 -326 175 -531 150 -197 194 -284 194 -386 0 -50 -2 -55 -41 -86 -54
-44 -152 -165 -144 -178 8 -13 71 34 150 115 67 69 93 78 170 64 78 -14 158
-59 310 -174 224 -168 317 -203 508 -192 159 9 467 79 467 106 0 11 -270 187
-382 248 -215 119 -340 155 -548 156 -147 0 -257 -17 -367 -59 -35 -13 -63
-21 -63 -19 0 3 11 38 25 78 61 182 71 428 26 602 -37 141 -187 421 -330 619
-42 58 -51 66 -57 50z"/>
<path d="M5887 11023 c-60 -200 -86 -402 -68 -523 17 -108 62 -196 185 -360
126 -168 173 -257 182 -347 l7 -62 -70 -73 c-82 -86 -123 -136 -123 -149 0
-24 34 -1 129 87 l104 97 61 -7 c89 -9 179 -57 346 -182 80 -60 177 -123 215
-141 128 -59 262 -65 480 -22 109 21 275 69 275 78 0 9 -166 123 -275 188
-133 80 -264 145 -355 176 -198 67 -485 58 -688 -22 l-52 -21 21 52 c80 203
89 490 22 688 -31 91 -96 222 -176 355 -65 109 -179 275 -188 275 -3 0 -18
-39 -32 -87z"/>
<path d="M1570 10437 c0 -1 -9 -29 -21 -61 -31 -91 -69 -290 -76 -403 -11
-191 24 -284 192 -508 115 -152 160 -232 174 -310 14 -77 5 -103 -63 -170 -83
-82 -129 -142 -116 -150 14 -9 66 32 154 118 l70 69 63 -5 c89 -7 181 -54 343
-176 231 -175 339 -212 550 -191 151 16 395 73 422 98 16 16 -288 209 -467
298 -188 92 -251 107 -460 108 -179 1 -285 -17 -391 -64 -24 -10 -44 -17 -44
-16 0 2 11 32 24 67 42 112 59 222 59 369 -1 207 -39 340 -159 555 -93 167
-254 402 -254 372z"/>
<path d="M5061 10220 c-61 -166 -97 -469 -72 -593 19 -86 69 -177 186 -332
129 -171 166 -243 173 -338 l5 -69 -70 -71 c-90 -93 -125 -136 -117 -148 9
-15 38 6 134 98 l90 86 70 -5 c94 -7 160 -41 335 -173 220 -165 292 -195 465
-195 133 0 379 45 479 87 l44 19 -144 96 c-353 234 -505 296 -752 305 -167 6
-257 -4 -387 -47 -47 -15 -86 -27 -86 -26 -1 0 11 39 26 86 43 130 53 220 47
387 -7 198 -41 307 -158 517 -46 82 -236 376 -243 376 -2 0 -13 -27 -25 -60z"/>
<path d="M734 9594 c-4 -11 -13 -34 -20 -52 -20 -50 -63 -263 -74 -364 -13
-124 2 -233 43 -323 18 -38 84 -140 147 -225 130 -175 170 -253 178 -346 l5
-63 -60 -58 c-79 -78 -136 -150 -128 -163 8 -14 71 35 153 118 l62 64 73 -4
c97 -4 163 -38 342 -173 221 -167 315 -203 508 -192 156 9 467 79 467 106 0
11 -266 184 -375 244 -216 119 -348 158 -550 160 -137 1 -234 -13 -352 -53
-46 -15 -83 -26 -83 -24 0 2 11 37 25 77 42 126 58 246 52 392 -7 171 -30 256
-116 430 -59 119 -209 363 -272 444 -17 22 -19 22 -25 5z"/>
<path d="M4221 9372 c-31 -95 -69 -290 -77 -392 -14 -185 27 -295 196 -520
124 -166 167 -248 176 -337 l7 -62 -70 -73 c-82 -86 -123 -136 -123 -149 0
-24 34 -1 129 87 l104 97 61 -7 c88 -9 171 -52 336 -176 225 -169 335 -210
520 -196 144 11 460 84 460 106 0 4 -69 52 -152 107 -275 183 -468 269 -653
294 -159 21 -370 -4 -513 -60 l-52 -21 21 52 c56 143 81 354 60 513 -25 185
-111 378 -294 653 -55 83 -103 152 -107 152 -3 0 -16 -31 -29 -68z"/>
<path d="M0 8218 l0 -427 56 -78 c121 -167 153 -313 82 -366 -46 -34 -138
-146 -138 -168 0 -20 1 -20 30 1 16 12 65 55 107 97 l77 75 62 -5 c90 -7 171
-48 334 -171 241 -180 353 -219 561 -196 160 18 395 73 422 99 13 13 -308 217
-457 291 -197 98 -259 113 -471 114 -180 1 -275 -15 -387 -63 -27 -11 -48 -19
-48 -17 0 2 11 33 24 69 58 152 76 400 43 568 -27 133 -114 318 -249 529 l-48
75 0 -427z"/>
<path d="M3391 8553 c-61 -168 -98 -470 -72 -596 19 -87 69 -177 186 -332 129
-171 166 -243 173 -338 l5 -69 -70 -71 c-90 -93 -125 -136 -117 -148 9 -15 38
6 134 98 l90 86 68 -5 c93 -7 166 -44 336 -172 220 -166 292 -196 467 -196
135 0 376 44 478 87 l45 19 -145 95 c-169 112 -205 133 -336 198 -176 87 -279
111 -467 111 -138 -1 -238 -16 -345 -53 -41 -15 -76 -25 -77 -24 -2 1 10 41
25 87 43 128 54 219 48 387 -7 200 -41 309 -169 533 -55 96 -225 360 -233 360
-1 0 -12 -26 -24 -57z"/>
<path d="M2551 7702 c-64 -196 -94 -447 -67 -572 22 -103 60 -173 182 -335
124 -166 172 -255 180 -341 l7 -61 -97 -104 c-92 -99 -111 -129 -83 -129 7 0
59 43 116 96 l104 97 61 -7 c86 -8 177 -56 332 -174 229 -173 287 -197 474
-196 95 1 156 7 252 27 133 28 258 65 258 76 0 8 -245 171 -335 224 -224 130
-409 187 -610 187 -92 0 -249 -27 -339 -58 l-82 -28 28 82 c42 120 61 266 54
399 -10 182 -49 306 -157 500 -61 112 -239 385 -250 385 -3 0 -15 -31 -28 -68z"/>
<path d="M1721 6883 c-61 -164 -98 -470 -72 -596 19 -86 69 -177 185 -332 131
-175 167 -244 174 -338 l5 -69 -70 -71 c-90 -93 -125 -136 -117 -148 9 -15 38
6 134 98 l90 86 68 -5 c92 -7 153 -38 329 -169 164 -121 254 -172 340 -190
126 -26 432 11 596 72 l57 22 -62 45 c-166 121 -421 264 -564 315 -191 69
-510 60 -698 -18 -21 -9 -40 -14 -43 -12 -2 3 3 22 12 43 36 87 58 200 63 331
8 218 -18 333 -121 538 -55 110 -167 295 -239 393 l-45 62 -22 -57z"/>
<path d="M2 6413 l3 -227 50 -20 c42 -17 74 -20 195 -20 121 0 166 5 274 28
72 15 154 37 183 48 46 17 52 22 41 35 -18 22 -246 170 -358 233 -142 80 -320
150 -379 150 -8 0 -11 -64 -9 -227z"/>
<path d="M877 6018 c-47 -149 -71 -301 -71 -438 1 -184 26 -241 204 -475 108
-143 157 -238 166 -322 l7 -60 -97 -104 c-92 -99 -111 -129 -83 -129 7 0 59
43 116 96 l104 97 60 -7 c84 -9 179 -58 322 -166 234 -178 291 -203 475 -204
90 0 157 6 240 22 119 23 280 69 280 81 0 4 -62 48 -137 98 -339 224 -515 297
-747 309 -134 7 -272 -12 -397 -54 l-86 -29 29 82 c41 121 61 267 54 401 -12
232 -85 408 -309 747 -50 75 -94 137 -98 137 -4 0 -18 -37 -32 -82z"/>
<path d="M51 5212 c-44 -121 -51 -175 -51 -430 l0 -243 29 -57 c16 -31 78
-122 138 -202 132 -177 164 -240 171 -333 l5 -69 -70 -71 c-90 -93 -125 -136
-117 -148 9 -15 38 6 134 98 l90 86 69 -5 c90 -7 160 -43 327 -168 224 -169
299 -200 478 -200 123 0 355 41 459 81 67 26 79 12 -128 149 -161 106 -386
220 -495 251 -117 33 -343 38 -478 10 -56 -12 -125 -31 -154 -42 -28 -11 -52
-18 -55 -16 -2 3 5 27 16 55 11 29 30 98 42 154 18 88 20 126 16 253 -6 187
-23 251 -116 440 -58 118 -207 361 -271 442 l-18 23 -21 -58z"/>
<path d="M0 2971 l0 -181 47 -35 c126 -94 260 -132 418 -121 153 10 465 82
465 106 0 10 -273 187 -385 248 -186 103 -301 141 -472 157 l-73 7 0 -181z"/>
<path d="M0 1920 c0 -27 3 -50 7 -50 4 0 27 7 50 16 l43 17 -32 24 c-67 50
-68 49 -68 -7z"/>
</g>
</svg>
